<svg width="233" height="157" viewBox="0 0 233 157" fill="none" xmlns="http://www.w3.org/2000/svg">
<path d="M203.233 155.868H34.0167C28.0317 151.578 15.8448 141.608 8.89625 124.712C6.24816 118.274 -1.56003 99.2883 7.12928 80.6402C13.8432 66.2317 26.9761 59.3875 38.0518 53.6153C52.2597 46.2102 62.9162 44.5333 72.3199 43.3901C72.7024 43.4714 73.0996 43.5143 73.5059 43.5143H73.6391C74.5396 43.5143 75.3916 43.3044 76.142 42.9342C85.5378 41.8035 93.9393 40.4775 103.873 33.2417C122.068 19.9888 117.852 6.98192 133.47 1.64308C136.802 0.504437 140.203 1.05074e-05 143.64 1.05074e-05C157.688 1.05074e-05 172.399 8.40381 186.039 16.1948C199.118 23.6665 214.931 32.6989 224.913 51.5366C235.26 71.0627 233.18 89.4943 231.981 98.934C228.249 128.306 211.008 148.008 203.233 155.868ZM138.707 150.831C134.148 150.831 130.454 151.441 130.454 152.195C130.454 152.948 134.148 153.558 138.707 153.558C143.265 153.558 146.961 152.386 146.961 151.632C146.961 150.879 143.265 150.831 138.707 150.831ZM153.214 150.718C150.973 150.718 149.157 151.041 149.157 151.44C149.157 151.839 150.973 152.163 153.214 152.163C155.454 152.163 157.271 151.542 157.271 151.142C157.271 150.743 155.454 150.718 153.214 150.718ZM147.84 39.1843C148.742 39.8049 149.746 40.1344 150.377 40.3421C151.027 40.5554 151.811 40.8059 152.804 40.8059C152.974 40.8059 153.147 40.7991 153.329 40.7833C154.347 40.6942 155.084 40.3737 155.751 40.078C156.76 39.63 157.939 39.1064 158.746 38.0964C159.574 37.0593 159.686 35.9049 159.68 34.0215C159.801 33.9797 159.932 33.9278 160.076 33.8466C160.647 33.5249 160.949 33.0555 161.081 32.8072C161.324 32.3491 161.374 31.9225 161.384 31.69C161.419 30.8888 161.076 30.3133 160.907 30.0402C160.634 29.5967 160.246 28.967 159.669 28.967C159.664 28.967 159.66 28.967 159.654 28.967C159.547 28.9681 159.45 28.9952 159.359 29.0313C159.232 28.5246 159.056 28.036 158.79 27.5259C157.649 25.3299 155.771 24.2308 154.959 23.8256C153.643 23.17 152.313 22.9375 151.089 22.9375C148.317 22.9375 146.081 24.1292 145.752 24.3098L145.048 25.2791C145.085 26.1639 145.161 27.8667 145.28 29.7411C145.276 29.7423 145.274 29.7434 145.271 29.7445C144.938 29.8551 145.39 30.8166 144.786 32.7587C144.425 33.921 144.065 34.2099 143.87 35.4197C143.766 36.0663 143.662 36.7592 143.958 37.5559C144.066 37.8515 144.354 38.5952 145.135 39.0827C145.573 39.3558 146.095 39.5048 146.616 39.5048C146.961 39.5048 147.304 39.4393 147.621 39.3005C147.621 39.3005 147.71 39.261 147.84 39.1843ZM179.392 18.0591C176.827 18.0591 174.502 19.1007 172.821 20.781C171.141 22.4613 170.099 24.7882 170.101 27.3521C170.099 29.9172 171.141 32.2441 172.821 33.9233C174.502 35.6047 176.829 36.6463 179.394 36.6452C179.394 36.6452 179.394 36.6452 179.395 36.6452C181.959 36.6452 184.284 35.6047 185.965 33.9233C187.645 32.2441 188.687 29.9172 188.687 27.3521C188.687 24.7882 187.645 22.4613 185.965 20.781C184.284 19.0996 181.958 18.0591 179.394 18.0591C179.392 18.0591 179.392 18.0591 179.392 18.0591ZM179.394 35.546C177.129 35.546 175.084 34.6297 173.599 33.1469C172.115 31.6618 171.2 29.617 171.199 27.3521C171.2 25.0884 172.115 23.0425 173.599 21.5585C175.084 20.0746 177.129 19.1582 179.394 19.1582C181.657 19.1582 183.703 20.0746 185.187 21.5585C186.671 23.0425 187.588 25.0884 187.588 27.3521C187.588 29.617 186.671 31.6618 185.187 33.1469C183.703 34.6297 181.657 35.546 179.394 35.546ZM179.887 28.4287V28.6093H180.592V28.4287H180.938V27.7234H180.592V21.4558H179.887V27.7234H174.385V28.4287H179.887Z" fill="#1D5D42"/>
<path d="M217.794 155.586C215.841 155.586 213.889 155.586 211.937 155.586C206.672 155.586 201.407 155.586 196.141 155.586C188.336 155.586 180.53 155.586 172.724 155.586C163.201 155.586 153.677 155.586 144.153 155.586C133.759 155.586 123.365 155.586 112.97 155.586C102.406 155.586 91.8426 155.586 81.2789 155.586C71.4961 155.586 61.7133 155.586 51.9308 155.586C43.6343 155.586 35.3378 155.586 27.0414 155.586C21.0765 155.586 15.1116 155.586 9.1468 155.586C6.32808 155.586 3.50721 155.553 0.688719 155.586C0.565489 155.587 0.442145 155.586 0.318915 155.586C-0.0441175 155.586 -0.0447946 156.15 0.318915 156.15C2.27108 156.15 4.22323 156.15 6.17539 156.15C11.4404 156.15 16.7055 156.15 21.9705 156.15C29.7765 156.15 37.5823 156.15 45.3882 156.15C54.9119 156.15 64.4352 156.15 73.9584 156.15C84.3529 156.15 94.7473 156.15 105.143 156.15C115.707 156.15 126.27 156.15 136.834 156.15C146.616 156.15 156.399 156.15 166.181 156.15C174.478 156.15 182.775 156.15 191.071 156.15C197.036 156.15 203 156.15 208.965 156.15C211.784 156.15 214.606 156.183 217.423 156.15C217.546 156.148 217.671 156.15 217.794 156.15C218.157 156.15 218.157 155.586 217.794 155.586Z" fill="#182F33"/>
<path d="M19.4578 62.58C19.3647 62.58 19.2824 62.554 19.2101 62.4987C17.4594 61.1558 22.9326 44.0176 33.8634 42.7559C34.3084 42.7051 34.7556 42.6803 35.2027 42.6803C40.7737 42.6803 46.272 46.4517 45.9859 48.5924C45.7234 50.556 40.7455 50.0177 33.0971 53.4144C24.235 57.3494 20.7649 62.5811 19.4578 62.58Z" fill="#1D5D42"/>
<path d="M179.395 36.6451C179.394 36.6451 179.394 36.6451 179.394 36.6451C176.829 36.6463 174.502 35.6047 172.821 33.9232C171.141 32.2441 170.099 29.9171 170.101 27.3521C170.099 24.7882 171.141 22.4613 172.821 20.7809C174.502 19.1006 176.827 18.059 179.392 18.059C179.392 18.059 179.392 18.059 179.394 18.059C181.957 18.059 184.284 19.0995 185.965 20.7809C187.645 22.4613 188.687 24.7882 188.687 27.3521C188.687 29.9171 187.645 32.2441 185.965 33.9232C184.284 35.6047 181.959 36.6451 179.395 36.6451ZM179.394 19.1582C177.129 19.1582 175.084 20.0745 173.599 21.5585C172.115 23.0424 171.2 25.0884 171.199 27.3521C171.2 29.617 172.115 31.6618 173.599 33.1468C175.084 34.6297 177.129 35.546 179.394 35.546C181.657 35.546 183.703 34.6297 185.187 33.1468C186.671 31.6618 187.587 29.617 187.587 27.3521C187.587 25.0884 186.671 23.0424 185.187 21.5585C183.703 20.0745 181.657 19.1582 179.394 19.1582Z" fill="#A5A6A6"/>
<path d="M180.938 28.4287H180.592V27.7234H180.938V28.4287ZM179.887 28.4287H174.385V27.7234H179.887V28.4287Z" fill="#A5A6A6"/>
<path d="M180.592 28.6093H179.887V28.4287H180.592V28.6093ZM180.592 27.7234H179.887V21.4558H180.592V27.7234Z" fill="#A5A6A6"/>
<path d="M179.887 28.4287H180.592V27.7228H179.887V28.4287Z" fill="#959595"/>
<path d="M169.315 150.603H164.625V101.426H169.315V150.603Z" fill="#868686"/>
<path d="M176.185 58.619C177.667 62.5359 187.277 88.7765 175.662 99.7871C174.414 100.97 172.871 101.88 172.871 101.88C167.601 105.22 162.328 105.445 159.09 105.543C153.575 105.711 149.966 105.821 146.705 103.275C146.705 103.275 143.155 100.522 142.17 95.7742C140.44 87.4291 153.564 75.3702 173.743 65.4226L176.185 58.619Z" fill="#F4BF25"/>
<path d="M154.366 155.591H182.363C182.363 155.591 170.373 148.518 166.668 149.014C162.963 149.509 154.366 155.591 154.366 155.591Z" fill="#828483"/>
<path d="M154.637 99.6664C155.26 100.567 156.421 100.722 157.571 100.875C163.724 101.695 170.457 95.86 172.934 89.3103C174.359 85.54 174.895 80.1583 172.934 79.1257C172.374 78.8312 171.169 78.6574 167.065 81.8871C160.573 86.9958 152.31 96.3057 154.637 99.6664Z" fill="#F3A722"/>
<path d="M138.707 153.558C134.148 153.558 130.454 152.948 130.454 152.195C130.454 151.441 134.148 150.831 138.707 150.831C143.265 150.831 146.961 150.879 146.961 151.632C146.961 152.386 143.265 153.558 138.707 153.558Z" fill="#E6E6E5"/>
<path d="M153.214 152.163C150.973 152.163 149.157 151.839 149.157 151.44C149.157 151.04 150.973 150.718 153.214 150.718C155.454 150.718 157.271 150.743 157.271 151.142C157.271 151.542 155.454 152.163 153.214 152.163Z" fill="#E6E6E5"/>
<path d="M160.66 41.2922C160.66 41.2922 159.672 39.3061 159.962 36.3743C160.253 33.4425 152.345 40.0125 152.345 40.0125V44.4904L154.596 45.7689L160.66 42.3383V41.2922Z" fill="#F9BE8D"/>
<path d="M158.741 39.2565C158.46 39.0432 158.639 38.4564 158.959 37.0763C159.535 34.6061 159.39 34.6478 159.68 34.0215C159.922 33.5013 160.765 31.6754 161.794 31.7555C162.545 31.8142 163.094 32.8659 163.277 33.587C163.806 35.6781 161.91 37.5717 161.532 37.9486C160.93 38.549 160.392 38.804 160.019 38.9767C159.474 39.2283 158.994 39.4484 158.741 39.2565Z" fill="#26201C"/>
<path d="M145.271 29.7445C144.938 29.8551 145.39 30.8166 144.786 32.7587C144.425 33.921 144.065 34.2099 143.87 35.4196C143.766 36.0663 143.662 36.7592 143.958 37.5559C144.066 37.8515 144.354 38.5952 145.135 39.0827C145.863 39.5364 146.827 39.6492 147.621 39.3005C147.621 39.3005 148.141 39.0714 148.494 38.646C150.093 36.7106 146.195 29.4364 145.271 29.7445Z" fill="#3A322B"/>
<path d="M160.907 30.0402C160.631 29.5934 160.239 28.9558 159.654 28.9671C159.547 28.9682 159.45 28.9953 159.359 29.0314C159.232 28.5247 159.056 28.0361 158.79 27.526C157.649 25.33 155.771 24.2308 154.959 23.8257C150.667 21.6872 146.226 24.048 145.752 24.3098L145.048 25.2792C145.132 27.2766 145.414 33.4404 145.928 36.3338C145.963 36.5313 146.033 36.9014 146.238 37.3472C147.116 39.2701 149.295 39.9867 150.377 40.3422C151.136 40.5915 152.081 40.8917 153.329 40.7834C154.347 40.6942 155.084 40.3738 155.751 40.0781C156.76 39.6301 157.939 39.1065 158.746 38.0965C159.574 37.0594 159.686 35.905 159.68 34.0215C159.801 33.9798 159.932 33.9279 160.076 33.8466C160.647 33.525 160.949 33.0555 161.081 32.8073C161.324 32.3491 161.374 31.9225 161.384 31.6901C161.419 30.8889 161.076 30.3133 160.907 30.0402Z" fill="#F9BE8D"/>
<path d="M155.559 31.4948C155.559 32.0263 155.129 32.4574 154.596 32.4574C154.065 32.4574 153.634 32.0263 153.634 31.4948C153.634 30.9622 154.065 30.5311 154.596 30.5311C155.129 30.5311 155.559 30.9622 155.559 31.4948Z" fill="#231F20"/>
<path d="M156.27 29.3552C155.805 28.9715 155.227 28.7526 154.62 28.774C154.179 28.7887 153.742 28.9184 153.357 29.134C153.154 29.248 153.337 29.5617 153.541 29.4466C154.324 29.0076 155.306 29.029 156.014 29.6113C156.192 29.7592 156.45 29.5041 156.27 29.3552Z" fill="#231F20"/>
<path d="M148.822 31.0524C148.822 31.5839 148.391 32.015 147.859 32.015C147.328 32.015 146.897 31.5839 146.897 31.0524C146.897 30.5209 147.328 30.0898 147.859 30.0898C148.391 30.0898 148.822 30.5209 148.822 31.0524Z" fill="#231F20"/>
<path d="M149.532 29.09C149.067 28.7074 148.489 28.4874 147.882 28.5088C147.442 28.5246 147.005 28.6532 146.62 28.8688C146.417 28.9828 146.599 29.2965 146.803 29.1825C147.586 28.7424 148.568 28.7638 149.276 29.3473C149.455 29.494 149.712 29.2389 149.532 29.09Z" fill="#231F20"/>
<path d="M151.124 34.1817C151.054 34.1817 150.983 34.1817 150.913 34.1817C150.818 34.1817 150.701 34.2009 150.608 34.1817H150.577L150.525 34.1083C150.443 34.0147 150.438 33.9345 150.446 33.8172C150.456 33.6445 150.491 33.4752 150.535 33.3082C150.616 33.008 150.735 32.7203 150.851 32.4325C150.889 32.3377 150.931 32.2429 150.958 32.1448C150.971 32.0996 150.989 32.0375 150.96 31.9947C150.928 31.9461 150.849 31.9913 150.881 32.0409C150.898 32.0658 150.866 32.1369 150.858 32.1628C150.831 32.2463 150.797 32.3276 150.764 32.4077C150.67 32.6379 150.577 32.867 150.501 33.1028C150.422 33.3522 150.359 33.6129 150.352 33.877C150.348 34.0271 150.398 34.1072 150.5 34.2155C150.554 34.2742 150.57 34.2731 150.642 34.2731C150.803 34.2731 150.964 34.2731 151.124 34.2731C151.183 34.2731 151.183 34.1817 151.124 34.1817Z" fill="#231F20"/>
<path d="M156.639 35.853C155.742 35.853 155.014 35.1252 155.014 34.2269C155.014 33.3286 155.742 32.6007 156.639 32.6007C157.537 32.6007 158.265 33.3286 158.265 34.2269C158.265 35.1252 157.537 35.853 156.639 35.853Z" fill="#F7A681"/>
<path d="M150.961 36.485C151.118 38.7826 154.969 38.1912 154.222 35.853Z" fill="#BE1E2D"/>
<path d="M150.868 36.4918C150.903 37.0142 151.126 37.4058 151.445 37.6597C151.763 37.9136 152.171 38.031 152.581 38.031C153.03 38.031 153.483 37.8899 153.829 37.6191C154.174 37.3494 154.411 36.942 154.411 36.4308C154.411 36.2424 154.379 36.0392 154.311 35.8248L154.133 35.8812C154.196 36.0799 154.224 36.2627 154.224 36.4308C154.223 36.8833 154.021 37.2298 153.714 37.4724C153.406 37.7139 152.991 37.8448 152.581 37.8437C152.206 37.8437 151.839 37.7353 151.561 37.513C151.283 37.2907 151.088 36.9556 151.054 36.4793L150.868 36.4918Z" fill="#BE1E2D"/>
<path d="M154.173 37.0063C154.252 37.4137 153.698 37.8639 152.935 38.0117C152.173 38.1596 151.492 37.9486 151.413 37.5423C151.334 37.1349 151.888 36.6846 152.65 36.5368C153.413 36.389 154.094 36.6 154.173 37.0063Z" fill="#F27064"/>
<path d="M145.921 36.2852C145.915 36.2829 145.909 36.2806 145.904 36.2795C145.769 35.4941 145.651 34.483 145.548 33.3861C145.552 33.3838 145.555 33.3816 145.558 33.3793C145.662 34.4841 145.783 35.4997 145.921 36.2852Z" fill="#72453C"/>
<path d="M146.432 36.3744C146.252 36.3744 146.082 36.3394 145.921 36.2852C145.783 35.4998 145.662 34.4842 145.558 33.3794C145.811 33.218 146.11 33.1221 146.432 33.1221C147.33 33.1221 148.058 33.85 148.058 34.7482C148.058 35.6465 147.33 36.3744 146.432 36.3744Z" fill="#F7A681"/>
<path d="M145.373 31.4948C144.645 29.6519 143.965 28.2154 143.464 27.2201C142.874 26.0498 142.449 25.3253 142.7 24.4293C142.93 23.6033 143.611 23.0763 144.228 22.5978C144.835 22.1272 145.684 21.4693 146.901 21.3768C148.286 21.2707 150.095 21.8981 150.149 22.7727C150.188 23.416 149.271 24.1134 148.048 24.5162L145.278 27.3081L145.373 31.4948Z" fill="#3A322B"/>
<path d="M146.793 19.894C146.483 20.3217 145.927 21.2267 145.921 22.4229C145.912 24.0084 146.871 25.1053 147.577 25.9122C148.118 26.5295 149.316 27.8994 151.24 28.3542C153.662 28.9275 154.758 27.4695 157.52 28.2673C157.99 28.4027 158.598 28.5844 159.265 29.0516C161.552 30.6563 161.692 33.6378 161.707 34.1106C161.726 34.7516 161.78 36.5019 160.66 37.8617C159.808 38.8965 158.706 39.1809 158.741 39.2565C158.793 39.3659 161.157 38.9371 163.103 37.0763C163.476 36.7174 164.93 35.2594 165.457 32.8896C165.975 30.5649 165.295 28.7323 164.411 26.3478C163.713 24.4689 162.948 22.4037 160.922 20.5045C159.221 18.91 157.507 18.2509 156.299 17.8007C154.31 17.0592 151.371 15.9635 148.973 17.3651C148.153 17.8447 147.627 18.4811 147.315 18.9348" fill="#3A322B"/>
<path d="M152.345 40.7878C152.785 40.7224 153.318 40.605 153.901 40.3906C154.34 40.2292 154.719 40.0442 155.034 39.867L152.345 41.4153V40.7878Z" fill="#D99873"/>
<path d="M160.67 32.5206C160.71 32.3807 160.83 31.9056 160.61 31.3718C160.364 30.7771 159.87 30.5255 159.749 30.4679" fill="#D99873"/>
<path d="M152.374 41.8734L151.895 42.3383L151.124 44.1405L152.345 44.4904L154.032 43.7918L152.374 41.8734Z" fill="#F9BE8D"/>
<path d="M147.907 21.9489C148.223 23.2343 148.864 24.8751 150.314 25.6785C150.871 25.9878 151.382 26.0792 151.92 26.0792C152.707 26.0792 153.55 25.8828 154.688 25.8828C155.203 25.8828 155.779 25.9223 156.437 26.0397C157.437 26.218 159.901 26.6569 161.587 28.6735C161.999 29.1667 163.096 30.4814 163.096 32.2125C163.096 32.4607 163.073 32.7169 163.024 32.9809C162.693 34.7177 161.365 35.7096 160.99 35.9703L161.007 35.9951C161.384 35.7333 162.72 34.7369 163.053 32.9866C163.104 32.7203 163.127 32.4618 163.127 32.2125C163.127 30.4678 162.023 29.1475 161.611 28.6543C159.916 26.6276 157.442 26.1875 156.443 26.0092C155.782 25.8918 155.205 25.8512 154.688 25.8512C153.547 25.8523 152.703 26.0487 151.92 26.0487C151.386 26.0487 150.881 25.9573 150.328 25.6515C148.891 24.8559 148.251 23.2241 147.936 21.9421L147.907 21.9489Z" fill="white"/>
<path d="M163.651 27.6975C162.04 24.8357 160.258 23.6711 158.965 23.1317C157.807 22.6475 156.73 22.5369 155.733 22.3462C154.735 22.1566 153.817 21.8892 152.971 21.0947C151.984 20.1683 151.592 18.9913 151.416 18.2228L151.386 18.2295C151.563 19.0003 151.957 20.1841 152.95 21.1173C153.802 21.9174 154.727 22.1871 155.727 22.3767C156.726 22.5674 157.8 22.678 158.953 23.1599C160.241 23.697 162.016 24.856 163.625 27.7122L163.651 27.6975Z" fill="white"/>
<path d="M145.992 23.1859C145.848 23.2445 144.914 23.6418 144.548 24.7003C144.449 24.9858 144.413 25.2577 144.413 25.5049C144.413 26.0872 144.615 26.5216 144.668 26.6311L144.696 26.6176C144.643 26.5104 144.443 26.0804 144.443 25.5049C144.443 25.2611 144.479 24.9925 144.577 24.7104C144.938 23.6655 145.863 23.2716 146.003 23.2141L145.992 23.1859Z" fill="white"/>
<path d="M145.205 33.2744C145.092 33.4346 144.368 34.5022 144.368 35.8597C144.368 36.2434 144.426 36.6508 144.573 37.0672C144.861 37.882 145.376 38.4124 145.703 38.6934L145.723 38.6708C145.398 38.3909 144.887 37.8651 144.603 37.0571C144.457 36.644 144.398 36.24 144.398 35.8597C144.398 34.5135 145.119 33.4504 145.23 33.2924L145.205 33.2744Z" fill="white"/>
<path d="M160.497 134.991C160.54 134.952 160.583 134.898 160.621 134.829C160.594 134.891 160.561 134.963 160.524 135.043C159.287 137.761 153.152 151.029 152.036 149.441C151.681 148.937 151.543 148.439 151.555 147.85C151.584 146.379 152.563 144.338 153.481 140.206C156.256 135.691 142.096 108.315 133.3 92.2048L133.86 92.4768L133.552 91.1926L141.725 85.1846C143.281 90.0156 145.19 96.1884 146.615 101.593C149.474 112.435 157.519 130.899 157.519 130.899C158.106 131.918 158.624 132.929 159.074 133.702C159.667 134.716 160.141 135.318 160.497 134.991Z" fill="#F9BE8D"/>
<path d="M160.741 134.565C160.705 134.666 160.666 134.752 160.625 134.822C160.694 134.671 160.734 134.582 160.741 134.565Z" fill="#F9BE8D"/>
<path d="M151.947 147.128C152.133 146.806 155.28 144.578 155.28 144.578C155.28 144.578 157.713 133.457 159.092 133.703C159.092 133.703 160.207 133.573 161.208 136.712L164.911 141.979L163.637 142.954L161.983 140.603C161.983 140.603 159.194 140.279 158.617 142.891C158.04 145.502 157.952 147.306 157.952 147.306L153.051 151.057C153.051 151.057 149.087 152.066 151.947 147.128Z" fill="#231F20"/>
<path d="M150.529 82.0418L147.203 96.8035C147.203 96.8035 146.94 100.31 146.595 105.289C145.827 116.435 144.648 134.959 145.084 137.977C145.245 139.098 145.31 140.154 145.312 141.102C145.326 143.852 144.845 145.715 144.845 145.715C144.845 145.715 131.924 153.175 131.993 151.064C132.026 150.051 132.583 149.414 133.581 148.562C134.659 147.64 136.251 146.466 138.251 144.289C141.909 141.152 139.468 114.977 137.985 101.83C137.477 97.3282 137.081 94.3547 137.081 94.3547C136.523 91.9916 136.228 89.5202 136.085 87.2779C138.511 85.7635 142.984 83.0021 144.175 82.4582C144.756 82.193 145.058 81.64 145.206 81.0329L150.529 82.0418Z" fill="#F9BE8D"/>
<path d="M133.309 148.628C133.612 148.459 137.238 148.311 137.238 148.311C137.238 148.311 144.493 140.206 145.503 141.182C145.503 141.182 146.475 141.691 145.804 144.916L146.333 151.452L144.831 151.574L144.595 148.656C144.595 148.656 142.47 146.831 140.761 148.731C139.054 150.631 138.127 152.116 138.127 152.116L132.348 152.582C132.348 152.582 128.633 151.238 133.309 148.628Z" fill="#231F20"/>
<path d="M127.691 55.3622C127.691 55.3622 126.354 51.909 126.238 50.9205C126.121 49.9319 126.238 48.5654 126.238 48.5654C126.238 48.5654 125.714 46.5014 124.144 49.0009C124.144 49.0009 121.566 46.1662 120.656 45.7701C119.434 45.2375 119.301 51.6179 119.542 52.0828C119.542 52.0828 119.9 55.5134 121.295 55.9784C122.691 56.4444 128.331 56.9861 128.331 56.9861L127.691 55.3622Z" fill="#F9BE8D"/>
<path d="M171.475 82.8667C172.347 88.2732 170.778 92.0243 166.329 95.6004C161.881 99.1766 153.072 100.834 153.072 100.834C153.072 100.834 151.327 101.619 148.451 104.409C147.942 104.901 147.304 105.174 146.595 105.288C143.297 105.823 138.506 102.927 138.506 102.927L137.985 101.83L135.156 95.8848C135.156 95.8848 135.382 93.3604 134.03 92.1112C132.677 90.8631 134.494 88.2732 134.494 88.2732C134.494 88.2732 135.132 87.8715 136.085 87.2779C138.511 85.7635 142.984 83.0021 144.175 82.4582C144.756 82.193 145.058 81.64 145.206 81.0329C145.48 79.9044 145.223 78.592 145.223 78.592C145.223 78.592 138.332 49.81 139.816 47.1073C141.298 44.4024 143.042 44.8165 143.042 44.8165L147.859 43.705C151.751 48.7989 157.409 47.7178 163.961 43.5142L167.29 45.0964L172.087 46.6706L167.55 50.5955L168.596 57.3111L169.121 63.678C169.121 63.678 170.604 77.459 171.475 82.8667Z" fill="#33324D"/>
<path d="M150.978 42.2469L147.859 43.7049C147.859 43.7049 150.107 54.0836 154.032 56.5256C154.032 56.5256 162.317 48.2403 164.149 43.6181L160.986 41.8734L154.596 44.8165H152.919C152.247 44.7725 151.593 44.2602 150.961 43.1813L150.978 42.2469Z" fill="#E6E7E8"/>
<path d="M154.032 44.8391C154.032 44.8391 160.224 41.9603 160.748 41.3498C161.271 40.7393 161.271 42.4264 161.271 42.4264L160.049 44.8391L156.386 48.9761C156.386 48.9761 156.299 45.2746 154.032 44.8391Z" fill="#A6A8AB"/>
<path d="M154.032 44.8391L151.677 43.9634L152.374 41.8734C152.374 41.8734 151.589 41.3994 150.978 42.2469C150.368 43.0944 149.757 44.3154 149.757 44.3154L150.978 47.8916C150.978 47.8916 151.939 44.8391 154.032 44.8391Z" fill="#A6A8AB"/>
<path d="M141.908 45.0964C141.908 45.0964 140.687 45.8852 139.902 47.1942C139.117 48.5021 133.709 66.5567 133.709 66.5567V74.842H145.135L144.438 50.5955L141.908 45.0964Z" fill="#33324D"/>
<path d="M128.825 56.3124L121.673 58.5321L129.697 74.7551H136.762V72.9236" fill="#33324D"/>
<path d="M167.812 54.6885C167.875 55.0304 167.928 55.3734 167.987 55.7154L168.146 56.7445C168.252 57.4307 168.346 58.119 168.439 58.8063C168.53 59.4947 168.62 60.183 168.699 60.8737L168.815 61.9085C168.849 62.2538 168.887 62.5991 168.917 62.9456C168.854 62.6036 168.801 62.2606 168.742 61.9175L168.583 60.8883C168.478 60.2022 168.383 59.515 168.289 58.8266C168.199 58.1382 168.109 57.4499 168.031 56.7604L167.914 55.7255C167.88 55.3791 167.841 55.0349 167.812 54.6885Z" fill="white"/>
<path d="M164.905 66.2949C165.277 66.2723 165.651 66.261 166.023 66.243L167.143 66.208C167.889 66.1854 168.635 66.1764 169.382 66.1606C170.128 66.1572 170.874 66.1471 171.619 66.1493L172.74 66.1561C173.112 66.164 173.486 66.1662 173.86 66.1787C173.486 66.2001 173.114 66.2125 172.74 66.2294L171.622 66.2656C170.876 66.287 170.129 66.296 169.383 66.3118C168.637 66.3152 167.891 66.3265 167.144 66.3231L166.024 66.3175C165.651 66.3096 165.279 66.3073 164.905 66.2949Z" fill="white"/>
<path d="M142.461 46.6706C142.783 46.8545 143.047 47.1333 143.27 47.4312C143.492 47.7325 143.664 48.0688 143.805 48.4141L143.902 48.677L143.982 48.9445C144.009 49.0336 144.033 49.1239 144.051 49.2153L144.107 49.4884C144.141 49.6712 144.159 49.8563 144.183 50.0402C144.191 50.2253 144.202 50.4104 144.205 50.5955C144.168 50.4138 144.142 50.231 144.109 50.0504C144.068 49.871 144.035 49.6904 143.992 49.5132C143.94 49.3372 143.907 49.1566 143.844 48.9851L143.762 48.7244L143.664 48.4705C143.529 48.132 143.369 47.8047 143.173 47.4989C143.072 47.3477 142.969 47.1965 142.849 47.0588C142.734 46.9166 142.605 46.7857 142.461 46.6706Z" fill="white"/>
<path d="M133.39 65.7138C133.754 66.3672 134.076 67.0397 134.389 67.7168C134.697 68.3962 134.995 69.08 135.251 69.7831C134.886 69.1297 134.564 68.4571 134.251 67.78C133.943 67.1007 133.646 66.4168 133.39 65.7138Z" fill="white"/>
<path d="M176.796 74.2316C172.783 74.2316 156.004 73.5556 156.004 73.5556C156.004 73.5556 154.775 73.0489 154.795 70.5155C154.816 67.9809 155.559 66.462 155.559 66.462C155.559 66.462 156.481 65.2793 158.265 66.2927L169.121 66.462L168.859 60.4212L168.422 57.0877L167.728 52.6099L167.486 51.3189C167.423 50.9803 167.508 50.6305 167.721 50.3597L168.218 49.7232L170.091 47.3737C170.416 46.9663 170.903 46.7192 171.425 46.6977L172.087 46.6706C172.087 46.6706 174.802 47.8115 174.83 50.846C174.856 51.0074 174.873 51.1722 174.877 51.3437L178.976 70.0934C178.976 70.0934 180.808 74.2316 176.796 74.2316Z" fill="#33324D"/>
<path d="M152.696 67.6107L149.147 52.6301C149.147 52.6301 135.483 53.3162 134.668 54.6884L140.019 74.6682L154.497 74.4346L152.696 67.6107Z" fill="#E6E1E7"/>
<path d="M154.671 67.7484C154.671 67.7484 150.775 67.516 149.757 67.2835C148.741 67.051 145.833 66.12 145.659 68.0396C145.484 69.958 146.415 70.8879 146.415 70.8879C146.415 70.8879 147.963 72.2951 150.154 72.2308C150.154 72.2308 154.322 72.7487 155.718 72.5749C157.113 72.4 154.671 67.7484 154.671 67.7484Z" fill="#F9BE8D"/>
<path d="M154.01 66.6515C154.189 66.9144 154.353 67.1864 154.518 67.4584C154.679 67.7326 154.833 68.0102 154.983 68.2912C155.282 68.852 155.553 69.4298 155.785 70.0245C156.007 70.6204 156.21 71.2354 156.261 71.8809C156.281 72.2002 156.263 72.5365 156.122 72.8367C156.103 72.8728 156.079 72.9067 156.058 72.9416C156.046 72.9586 156.036 72.9755 156.024 72.9924L155.981 73.0376C155.953 73.0669 155.927 73.0985 155.895 73.1245C155.864 73.1504 155.831 73.1741 155.796 73.1955C155.657 73.2813 155.498 73.3231 155.341 73.3389C155.496 73.3073 155.647 73.252 155.773 73.1617C155.805 73.1391 155.835 73.1143 155.864 73.0883C155.891 73.0613 155.912 73.0297 155.938 73.0003L155.974 72.9563C155.984 72.9405 155.992 72.9225 156.002 72.9055C156.019 72.8717 156.04 72.839 156.055 72.8051C156.173 72.5196 156.178 72.1991 156.145 71.891C156.107 71.5818 156.037 71.2737 155.948 70.9724C155.861 70.6711 155.758 70.3732 155.644 70.0787C155.419 69.4885 155.153 68.9141 154.88 68.3431C154.743 68.0576 154.6 67.7743 154.453 67.4933C154.311 67.2101 154.16 66.9314 154.01 66.6515Z" fill="white"/>
<path d="M156.935 55.8982L157.474 55.4378C157.652 55.2832 157.827 55.1229 158.003 54.9661C158.355 54.6512 158.702 54.3296 159.038 53.999C159.713 53.3388 160.364 52.6549 160.972 51.9338C161.59 51.2206 162.166 50.4725 162.707 49.6994C162.976 49.3124 163.242 48.9208 163.49 48.5191C163.748 48.123 163.983 47.7133 164.223 47.3048C164.014 47.7291 163.79 48.1478 163.553 48.5574C163.317 48.9682 163.062 49.3677 162.804 49.7649C162.28 50.556 161.699 51.3075 161.087 52.032C160.466 52.7486 159.812 53.437 159.118 54.0825C158.771 54.4052 158.414 54.7178 158.052 55.0225C157.868 55.1703 157.686 55.3227 157.499 55.4682L156.935 55.8982Z" fill="white"/>
<path d="M145.162 82.1737C145.641 82.0654 146.147 82.088 146.627 82.2087C146.865 82.273 147.099 82.3588 147.318 82.4739C147.537 82.5868 147.741 82.7289 147.921 82.8926C147.706 82.7775 147.489 82.6736 147.268 82.5811C147.046 82.4908 146.82 82.4152 146.589 82.3554C146.127 82.2347 145.651 82.185 145.162 82.1737Z" fill="white"/>
<path d="M146.495 106.769C146.488 107.129 146.472 107.488 146.461 107.848L146.411 108.924C146.378 109.642 146.329 110.36 146.288 111.076C146.235 111.794 146.189 112.511 146.129 113.227L146.038 114.302C146.002 114.659 145.97 115.017 145.93 115.375C145.936 115.015 145.952 114.656 145.963 114.297L146.013 113.219C146.048 112.502 146.095 111.784 146.137 111.067C146.19 110.351 146.237 109.633 146.296 108.917L146.388 107.842C146.424 107.485 146.454 107.127 146.495 106.769Z" fill="#D99873"/>
<path d="M167.728 52.6099L167.609 51.5197L167.231 50.8867" fill="#46406C"/>
<path d="M206.971 155.868H203.99L202.69 76.6476H208.273L206.971 155.868Z" fill="#B3B4B6"/>
<path d="M33.7432 156.116H36.7242L38.0247 76.8959H32.4427L33.7432 156.116Z" fill="#B3B4B6"/>
<path d="M212.929 78.5051H29.4744V74.2022H212.929V78.5051Z" fill="#5B4E3D"/>
<path d="M36.5949 93.8671L36.6318 98.2095L36.653 102.552L36.6706 111.236L36.6533 119.919L36.632 124.262L36.5949 128.604L36.5579 124.262L36.5367 119.919L36.5194 111.236L36.537 102.552L36.5581 98.2095L36.5949 93.8671Z" fill="white"/>
<path d="M204.724 133.997L204.686 129.853L204.665 125.711L204.648 117.423L204.665 109.137L204.686 104.994L204.724 100.85L204.76 104.994L204.781 109.137L204.799 117.423L204.781 125.711L204.76 129.853L204.724 133.997Z" fill="white"/>
<path d="M131.148 74.2021H141.164C141.495 74.2021 141.763 73.9347 141.763 73.6041V73.5217C141.763 73.191 141.495 72.9236 141.164 72.9236H131.092C130.61 72.9236 130.326 73.4619 130.597 73.8591L130.653 73.9415C130.765 74.1051 130.95 74.2021 131.148 74.2021Z" fill="#8C8A8B"/>
<path d="M130.922 74.2021L127.862 56.819C127.862 56.819 127.213 55.2414 124.73 55.247C121.223 55.2549 111.178 55.8282 111.178 55.8282L117.779 74.2021H130.922Z" fill="#8C8A8B"/>
<path d="M130.832 74.2316L127.477 56.6273C127.323 55.8238 126.62 55.2415 125.801 55.2415H101.746C100.667 55.2415 99.8594 56.23 100.075 57.2874L103.515 74.2022L130.832 74.2316Z" fill="#D9DBDA"/>
<path d="M115.436 64.4227C115.436 65.2634 114.667 65.9462 113.72 65.9462C112.774 65.9462 112.005 65.2634 112.005 64.4227C112.005 63.5809 112.774 62.8981 113.72 62.8981C114.667 62.8981 115.436 63.5809 115.436 64.4227Z" fill="#A8AAA9"/>
<path d="M101.791 91.1927C101.791 91.1927 106.24 92.8098 107.024 94.99C107.81 97.1702 107.751 100.902 107.751 100.902L99.6111 93.1585L101.791 91.1927Z" fill="#F9BE8D"/>
<path d="M62.686 40.42C62.686 40.42 63.9071 41.957 63.7321 43.5143C63.5584 45.0716 63.2175 46.99 63.2175 46.99L71.2332 48.3273C71.2332 48.3273 71.1079 47.6299 71.2332 45.3616C71.3584 43.0945 71.6981 42.1059 71.6981 42.1059L69.7797 39.3005L62.686 40.42Z" fill="#F9BE8D"/>
<path d="M79.2025 36.2491C79.1698 36.2096 79.1371 36.1577 79.1055 36.1114V30.012C79.1055 27.1603 76.6454 24.8266 73.6391 24.8266H73.506C70.4997 24.8266 68.0396 27.1603 68.0396 30.012V33.2462C67.8331 33.1954 67.6119 33.1796 67.3907 33.2462C66.673 33.4629 66.4789 34.3589 66.3356 35.0168C66.2453 35.431 66.0681 36.2423 66.497 37.0966C66.647 37.3934 67.0488 38.1946 67.8771 38.3289C67.9346 38.3379 67.9865 38.3357 68.0407 38.3379C68.0452 41.1862 70.5031 43.5143 73.506 43.5143H73.6391C76.6454 43.5143 79.1055 41.1806 79.1055 38.3289V37.4904C79.1247 37.4871 79.1416 37.4871 79.1619 37.4814C79.198 37.4713 79.6201 37.3426 79.6889 37.0582C79.7555 36.7863 79.4519 36.5594 79.2025 36.2491Z" fill="#F9BE8D"/>
<path d="M72.5005 38.1416C71.3855 38.1416 70.4805 37.2366 70.4805 36.1216C70.4805 35.0056 71.3855 34.1005 72.5005 34.1005C73.6165 34.1005 74.5216 35.0056 74.5216 36.1216C74.5216 37.2366 73.6165 38.1416 72.5005 38.1416Z" fill="#F7A681"/>
<path d="M78.0954 39.2633C77.4781 39.4484 76.8248 39.3615 76.2639 39.05C76.1499 38.9868 76.0484 39.1617 76.1623 39.2238C76.7683 39.5612 77.4804 39.6571 78.1485 39.4574C78.2726 39.4213 78.2196 39.2261 78.0954 39.2633Z" fill="#231F20"/>
<path d="M78.074 33.4843C78.1959 34.0023 77.8754 34.5203 77.3574 34.6422C76.8405 34.7652 76.3214 34.4447 76.1996 33.9267C76.0777 33.4087 76.3982 32.8908 76.915 32.7689C77.433 32.647 77.951 32.9675 78.074 33.4843Z" fill="#231F20"/>
<path d="M77.9172 31.1641C76.9117 30.8312 75.8261 31.1946 75.1603 32.0015C75.0124 32.1809 75.2675 32.4382 75.4164 32.2576C75.6331 31.9947 75.8994 31.7758 76.203 31.62C76.7074 31.3627 77.2863 31.3368 77.8212 31.5139C78.0424 31.5873 78.1383 31.2375 77.9172 31.1641Z" fill="#231F20"/>
<path d="M68.0937 33.2473C68.9243 33.4764 68.9243 33.4764 69.0823 33.9075C69.2075 34.2494 69.0473 34.5948 69.0823 34.6049C69.1612 34.6297 69.4174 32.6053 70.652 31.9304C71.1248 31.672 71.425 31.7848 72.2804 31.7555C74.2642 31.6901 75.7787 30.9746 76.4659 30.6507C77.9499 29.9522 78.8944 29.0686 79.4316 28.5585C80.2689 27.7618 81.412 26.6762 82.0485 24.8943C82.4322 23.8211 82.9253 22.441 82.2234 21.1737C81.7009 20.2314 80.5962 19.49 79.5478 19.5453C78.9012 19.5792 78.7387 19.8929 77.8043 20.2427C77.1453 20.4887 76.5539 20.5858 74.9549 20.6501C73.2644 20.7189 71.9926 20.6896 69.8959 20.6501C67.4223 20.6038 67.0871 20.605 66.4653 20.7077C65.4576 20.8758 64.293 21.0823 63.0934 21.9298C62.6262 22.2582 61.377 23.1655 60.8252 24.7781C60.6683 25.2363 60.1142 26.859 60.534 27.86C60.5746 27.957 60.7067 28.2425 60.5927 28.4998C60.4437 28.835 59.9754 28.905 59.7779 28.9648C58.7273 29.2875 58.452 31.4937 58.3831 32.0467C57.9633 35.4084 59.8874 38.1664 60.3015 38.7329C60.5927 39.1324 61.5305 40.3534 63.151 41.3498C64.6586 42.2763 65.7273 42.3768 66.0004 42.3971C66.6165 42.4411 67.3861 42.4975 67.9775 42.0473C68.4469 41.6907 68.7843 41.0282 68.7911 39.199C68.8047 35.7041 68.0497 33.675 68.0937 33.2473Z" fill="#3A322B"/>
<path d="M68.7618 33.367C68.5146 33.3421 68.2596 33.3354 68.0012 33.3861C66.9201 33.6017 66.6267 34.4932 66.41 35.1477C66.2746 35.5596 66.0083 36.3665 66.6549 37.2162C66.8795 37.5119 67.4866 38.3086 68.7358 38.4417L68.7618 38.4429V33.367Z" fill="#F9BE8D"/>
<path d="M68.4549 33.8466C68.3116 33.8714 67.8319 33.9707 67.4483 34.4029C67.0206 34.8837 67.0104 35.4389 67.0115 35.572" fill="#D99873"/>
<path d="M68.7617 33.4584C68.7617 33.4584 68.2099 33.288 67.9707 33.3929C67.7326 33.4979 68.088 33.1853 68.088 33.1853L68.8046 33.2733L68.7617 33.4584Z" fill="#182F33"/>
<path d="M68.5654 38.2758L68.9581 38.6245V37.6867L68.5654 38.2758Z" fill="#F9BE8D"/>
<path d="M71.2535 43.0493C71.2535 43.0493 70.9431 43.1509 70.1273 42.397C69.3114 41.6432 71.3505 43.9634 71.3505 43.9634L71.4679 43.1362L71.2535 43.0493Z" fill="#D99873"/>
<path d="M80.428 20.377C79.9574 21.0202 79.1912 21.8869 78.0333 22.5324C76.9455 23.1384 75.8802 23.3449 74.8364 23.3449C72.6053 23.346 70.4759 22.4004 68.4604 22.4004C67.6321 22.4004 66.823 22.5606 66.0353 23.012C63.4928 24.4723 62.932 27.9582 62.4287 31.0615C62.2639 32.0805 62.0879 33.1695 62.0879 34.2562C62.0879 35.6081 62.361 36.9544 63.2717 38.1517C64.5107 39.7801 66.3321 40.3466 67.2394 40.5565L67.2462 40.5272C66.3423 40.3173 64.5277 39.753 63.2965 38.1337C62.3903 36.9431 62.1184 35.6036 62.1184 34.2562C62.1184 33.1729 62.2944 32.085 62.4592 31.066C62.9613 27.9627 63.5256 24.4858 66.0511 23.0391C66.8332 22.59 67.6366 22.4308 68.4604 22.4308C70.4669 22.4308 72.5974 23.3754 74.8364 23.3754C75.8836 23.3754 76.9556 23.1677 78.048 22.5584C79.2115 21.9106 79.98 21.0394 80.4528 20.3951L80.428 20.377Z" fill="white"/>
<path d="M65.9382 32.7395C65.8412 32.3987 65.6042 31.4971 65.6042 30.4679C65.6042 29.5042 65.8118 28.4276 66.5352 27.5948C67.6389 26.3196 69.4444 26.1944 71.6833 26.0397C72.0817 26.0127 72.4394 26.0014 72.7656 26.0014C74.1626 26.0014 74.9627 26.2056 75.7831 26.2056C76.1882 26.2056 76.5979 26.156 77.0842 26.007C78.2172 25.6594 79.6741 24.8029 81.0531 22.5539L81.0272 22.5381C79.6515 24.7815 78.2014 25.6312 77.0752 25.9777C76.5922 26.1255 76.186 26.1752 75.7831 26.1752C74.9683 26.1752 74.1649 25.9709 72.7656 25.9709C72.4394 25.9709 72.0806 25.9822 71.6811 26.0093C69.4433 26.1639 67.6276 26.2869 66.5115 27.5745C65.7825 28.4163 65.5737 29.4997 65.5737 30.4679C65.5737 31.5016 65.8118 32.4055 65.9089 32.7474L65.9382 32.7395Z" fill="white"/>
<path d="M92.6427 151.318L84.9092 151.299L84.934 141.284L92.6686 141.304L92.6427 151.318Z" fill="#F9BE8D"/>
<path d="M84.0324 150.603L93.3108 150.626C96.3893 152.027 99.6799 152.974 103.245 153.335C103.245 153.335 105.531 154.532 103.238 155.67C100.946 156.806 84.4398 156.466 84.4398 156.466C83.3745 154.959 83.2458 153.001 84.0324 150.603Z" fill="#182F33"/>
<path d="M116.945 150.288L109.6 152.094L107.26 142.585L114.604 140.778L116.945 150.288Z" fill="#F9BE8D"/>
<path d="M109 149.649L118.072 149.782C121.066 151.187 124.272 152.152 127.753 152.547C127.753 152.547 129.974 153.747 127.719 154.831C125.465 155.916 109.328 155.387 109.328 155.387C108.305 153.901 108.202 151.985 109 149.649Z" fill="#182F33"/>
<path d="M79.6979 92.1112L101.586 93.8671C101.586 93.8671 107.167 95.6005 108.098 102.927C109.028 110.253 115.773 145.141 115.773 145.141C115.773 145.141 111.819 147.699 107.632 147.234C107.632 147.234 96.7007 120.487 94.841 113.277C92.9801 106.066 83.6769 112.812 83.6769 112.812L62.1556 106.317L73.8208 93.8671L79.6979 92.1112Z" fill="#345F8A"/>
<path d="M102.4 91.5311C102.4 91.5311 102.167 93.7395 100.422 93.8558C98.6789 93.9731 90.3056 93.1572 90.3056 93.1572C90.3056 93.1572 84.7309 88.0746 81.6445 84.8211L81.9322 89.8508C81.9322 89.8508 81.4662 92.5761 78.3279 96.8406C75.1873 101.105 71.5818 103.949 71.5818 103.949L69.7683 104.759C64.4859 107.121 58.3865 106.779 53.4008 103.844L51.4287 102.683C45.6413 99.2759 42.2511 92.9124 42.6511 86.2092L44.1378 61.2991L49.2533 51.7036C49.2533 51.7036 50.184 49.3349 52.5105 49.0979C54.8351 48.8598 58.3244 48.3272 58.3244 48.3272L74.2574 49.9274L79.6482 50.6315L79.6978 50.5954C79.6978 50.5954 81.4662 51.6415 83.0946 57.3404C84.723 63.0381 91.0018 81.1795 91.0018 81.1795C91.0018 81.1795 90.6543 81.8781 96.0033 86.181C101.353 90.4827 102.4 91.5311 102.4 91.5311Z" fill="#E5E6EA"/>
<path d="M58.3234 48.3272L60.9121 46.6706L71.6981 47.4989L73.8208 49.8981L58.3234 48.3272Z" fill="#E5E6EA"/>
<path d="M79.6979 82.4592C79.5343 81.9796 79.3797 81.4978 79.2206 81.017L78.7579 79.5703C78.4498 78.6055 78.1564 77.6361 77.8551 76.669C77.5651 75.6985 77.2694 74.7303 76.9862 73.7586L76.5641 72.2995C76.4287 71.8109 76.2876 71.3245 76.1567 70.8359C76.3204 71.3143 76.475 71.7973 76.6352 72.2781L77.0979 73.7248C77.4048 74.6896 77.6994 75.659 77.9995 76.625C78.2884 77.5955 78.5852 78.5637 78.8685 79.5365L79.2905 80.9956C79.4259 81.4831 79.567 81.9695 79.6979 82.4592Z" fill="#AEB4BB"/>
<path d="M73.1325 60.2744C72.7601 59.5149 72.5851 58.6584 72.6032 57.8064C72.619 56.9522 72.8718 56.1058 73.304 55.3678C73.5252 54.9999 73.796 54.667 74.0871 54.3555C74.2395 54.2054 74.3873 54.0531 74.5532 53.9188C74.6356 53.8511 74.7112 53.7755 74.7981 53.7146L75.0554 53.525C75.1389 53.4606 75.2292 53.4031 75.3183 53.3467L75.5869 53.174C75.7697 53.0668 75.9548 52.9652 76.1399 52.8625L76.7143 52.5906C76.9095 52.5082 77.1047 52.4292 77.2999 52.3502C77.1115 52.4439 76.9208 52.5364 76.7312 52.6267L76.176 52.928C75.9954 53.0363 75.8149 53.1435 75.6377 53.2553L75.3781 53.4347C75.2924 53.4934 75.2055 53.5521 75.1242 53.6186C74.9595 53.7484 74.7936 53.8759 74.639 54.017C74.4776 54.1513 74.3343 54.3025 74.1876 54.4503C73.9055 54.7584 73.6459 55.0857 73.4338 55.4445C73.2205 55.8022 73.0489 56.1837 72.9293 56.582C72.8075 56.9804 72.7431 57.3945 72.7183 57.8109C72.6969 58.2274 72.7206 58.6483 72.7939 59.0613C72.8616 59.4754 72.9722 59.884 73.1325 60.2744Z" fill="#AEB4BB"/>
<path d="M59.691 48.3273C60.1695 48.3645 60.6457 48.4108 61.1242 48.4525L62.554 48.5936C63.5087 48.6895 64.46 48.799 65.4136 48.9005C66.3649 49.0145 67.3173 49.1217 68.2675 49.2414L69.6939 49.4253C70.169 49.4919 70.6441 49.5528 71.1181 49.6239C70.6396 49.5867 70.1634 49.5404 69.686 49.4986L68.2551 49.3576C67.3015 49.2617 66.3491 49.1533 65.3966 49.0506C64.4442 48.9367 63.4929 48.8295 62.5416 48.7087L61.1152 48.5259C60.6412 48.4593 60.165 48.3984 59.691 48.3273Z" fill="#AEB4BB"/>
<path d="M79.3536 111.236L84.1993 148.979C84.1993 148.979 91.5266 150.2 92.9214 148.979C94.3173 147.758 92.9214 105.195 92.9214 105.195L79.3536 111.236Z" fill="#345F8A"/>
<path d="M93.893 111.275C93.7598 110.959 93.6368 110.639 93.5082 110.32L93.138 109.361C92.8909 108.72 92.6562 108.076 92.4203 107.433C92.1878 106.787 91.9565 106.142 91.7365 105.492L91.4058 104.517C91.3009 104.19 91.1903 103.865 91.0898 103.537C91.223 103.854 91.3471 104.173 91.4758 104.492L91.8459 105.452C92.0919 106.092 92.3278 106.736 92.5625 107.381C92.795 108.026 93.0263 108.672 93.2464 109.322L93.577 110.296C93.682 110.623 93.7926 110.948 93.893 111.275Z" fill="white"/>
<path d="M52.2012 51.0402C52.2052 51.3832 52.1994 51.7263 52.1988 52.0705L52.1805 53.1008C52.1681 53.7869 52.1438 54.473 52.1194 55.1591C52.0914 55.8452 52.0632 56.5313 52.0233 57.2175L51.9628 58.2455C51.9371 58.5874 51.9166 58.9305 51.8863 59.2736C51.8823 58.9294 51.888 58.5863 51.8885 58.2421L51.9068 57.2129C51.9193 56.5257 51.9436 55.8396 51.9681 55.1535C51.9963 54.4673 52.0245 53.7812 52.0646 53.0962L52.1251 52.0671C52.1506 51.7251 52.1711 51.3821 52.2012 51.0402Z" fill="#AEB4BB"/>
<path d="M66.1753 152.618H61.9062V119.701H66.1753V152.618Z" fill="#7F7F81"/>
<path d="M37.4273 61.8758C37.4273 61.8758 58.2432 58.1541 64.1158 66.9923C69.9896 75.8306 72.1314 88.6231 72.1314 88.6231V100.717C72.1314 100.717 72.7871 107.462 78.5976 107.462C84.4093 107.462 87.2 106.3 87.2 106.3C87.2 106.3 94.6435 105.834 96.2708 114.207C96.2708 114.207 95.21 118.626 70.389 120.487C51.6149 123.859 46.5562 115.66 45.3352 112.812C46.5562 114.266 31.6127 93.2747 37.4273 61.8758Z" fill="#BDAE9B"/>
<path d="M46.3846 155.919H83.1736C83.1736 155.919 67.4189 148.847 62.5495 149.342C57.6812 149.838 46.3846 155.919 46.3846 155.919Z" fill="#7F7F81"/>
<path d="M201.205 132.299H181.906C181.596 132.299 181.345 132.048 181.345 131.738C181.345 131.429 181.596 131.177 181.906 131.177H201.205C201.514 131.177 201.766 131.429 201.766 131.738C201.766 132.048 201.514 132.299 201.205 132.299Z" fill="#A19E97"/>
<path d="M198.938 155.521H184.173C183.864 155.521 183.612 155.269 183.612 154.96C183.612 154.649 183.864 154.399 184.173 154.399H198.938C199.247 154.399 199.499 154.649 199.499 154.96C199.499 155.269 199.247 155.521 198.938 155.521Z" fill="#A19E97"/>
<path d="M184.318 154.315H198.793L200.75 132.216H182.36L184.318 154.315ZM199.074 154.622H184.036L182.025 131.909H201.085L199.074 154.622Z" fill="#A19E97"/>
<path d="M184.363 154.573L184.135 154.365L200.4 136.519L200.627 136.727L184.363 154.573Z" fill="#A19E97"/>
<path d="M183.859 149.701L183.632 149.493L199.613 131.959L199.839 132.167L183.859 149.701Z" fill="#A19E97"/>
<path d="M189.375 154.573L189.148 154.365L199.861 142.611L199.975 142.715H200.128V142.774L200.088 142.818L189.375 154.573Z" fill="#A19E97"/>
<path d="M182.976 139.759L182.753 139.548L189.895 131.958L190.119 132.169L182.976 139.759Z" fill="#A19E97"/>
<path d="M183.43 144.781L183.189 144.561L194.727 131.9L194.969 132.119L194.036 133.143L183.43 144.781Z" fill="#A19E97"/>
<path d="M194.227 154.573L194.001 154.365L199.338 148.508L199.566 148.716L194.227 154.573Z" fill="#A19E97"/>
<path d="M182.646 136.035L182.424 135.823L186.16 131.904L186.382 132.116L182.646 136.035Z" fill="#A19E97"/>
<path d="M198.647 154.573L182.494 136.849L182.721 136.642L198.873 154.365L198.647 154.573Z" fill="#A19E97"/>
<path d="M199.242 149.801L183.171 132.167L183.397 131.959L199.469 149.594L199.242 149.801Z" fill="#A19E97"/>
<path d="M193.635 154.573L183.033 142.94L183.261 142.734L193.862 154.365L193.635 154.573Z" fill="#A19E97"/>
<path d="M200.125 139.857L192.89 132.169L193.115 131.958L200.348 139.646L200.125 139.857Z" fill="#A19E97"/>
<path d="M199.671 144.881L188.041 132.119L188.283 131.9L189.215 132.924L199.913 144.662L199.671 144.881Z" fill="#A19E97"/>
<path d="M188.783 154.573L183.555 148.838L183.782 148.631L189.009 154.365L188.783 154.573Z" fill="#A19E97"/>
<path d="M200.456 136.132L196.627 132.116L196.85 131.905L196.9 131.957L200.678 135.92L200.456 136.132Z" fill="#A19E97"/>
<path fill-rule="evenodd" clip-rule="evenodd" d="M19.9005 107.474C19.9005 107.474 17.49 99.7488 19.7998 97.019C22.1097 94.2892 22.3727 94.92 23.3181 91.4544C24.2635 87.9889 24.6305 85.3629 27.4134 83.2109C30.1963 81.0577 31.9294 79.8503 31.9294 79.8503C31.9294 79.8503 32.664 86.6764 29.8812 90.1939C27.0987 93.7114 27.3603 93.0287 27.6235 96.7041C27.8857 100.38 24.0769 105.712 19.9005 107.474Z" fill="#93B82C"/>
<path fill-rule="evenodd" clip-rule="evenodd" d="M14.9207 97.0709C13.9203 86.7261 14.7354 73.5737 12.4419 65.8165C12.4419 65.8165 17.0631 68.1265 16.9579 72.9564C16.8525 77.7863 17.7978 77.5764 18.3229 79.3617C19.3685 84.4229 15.9077 88.8499 14.9207 97.0709Z" fill="#93B82C"/>
<path fill-rule="evenodd" clip-rule="evenodd" d="M11.7345 107.156C11.7345 107.156 6.28146 105.515 5.43307 101.487C4.58445 97.458 4.96429 98.0515 3.65503 95.6558C2.34565 93.26 2.48231 91.556 2.1239 89.1647C1.62275 85.8244 -0.705763 86.2476 0.212031 80.0748C5.99053 82.8148 3.62468 83.8654 5.38951 85.5987C9.82614 89.9558 8.41406 93.0253 11.1794 95.9153C13.6901 98.539 14.1926 100.595 11.7345 107.156Z" fill="#93B82C"/>
<path fill-rule="evenodd" clip-rule="evenodd" d="M15.3935 95.3737L16.3987 125.223L15.0045 124.705L14.8131 89.5597L15.3935 95.3737Z" fill="#1E1E1E"/>
<path fill-rule="evenodd" clip-rule="evenodd" d="M14.9333 127.842L14.099 127.894C12.0759 96.2572 2.39327 84.0188 2.36584 83.9838C13.0776 97.8811 14.7592 125.119 14.9333 127.842Z" fill="#1E1E1E"/>
<path fill-rule="evenodd" clip-rule="evenodd" d="M28.8983 85.6382C26.177 89.9343 18.4651 105.072 16.9221 127.869L16.0878 127.814C16.3727 123.604 17.83 103.267 28.8983 85.6382Z" fill="#1E1E1E"/>
<path fill-rule="evenodd" clip-rule="evenodd" d="M9.88496 155.625H20.757C28.7909 142.26 21.1006 135.498 19.0083 130.908C17.4049 127.392 17.6534 125.1 19.0424 121.902C15.1116 121.902 15.5303 121.902 11.5996 121.902C12.9885 125.1 13.237 127.391 11.6337 130.908C9.541 135.498 1.85107 142.26 9.88496 155.625Z" fill="url(#paint0_linear_169_738)"/>
<path fill-rule="evenodd" clip-rule="evenodd" d="M13.328 121.902L12.2808 118.87L14.2754 121.902H13.328Z" fill="#1E1E1E"/>
<path fill-rule="evenodd" clip-rule="evenodd" d="M18.1059 121.902L18.681 118.078L16.6566 121.902H18.1059Z" fill="#1E1E1E"/>
<defs>
<linearGradient id="paint0_linear_169_738" x1="6.30214" y1="138.764" x2="24.3397" y2="138.764" gradientUnits="userSpaceOnUse">
<stop stop-color="#CCCCCC"/>
<stop offset="0.206402" stop-color="#CCCCCC"/>
<stop offset="1" stop-color="#999898"/>
</linearGradient>
</defs>
</svg>
