<svg width="367" height="222" viewBox="0 0 367 222" fill="none" xmlns="http://www.w3.org/2000/svg">
<path d="M50.1188 197.341C22.0742 190.942 -1.39601 163.174 0.06471 139.234C1.24825 119.838 17.8577 118.363 36.8727 87.3397C60.843 48.2333 45.6 32.3867 66.855 15.7699C90.3506 -2.59856 136.172 -4.49882 167.041 7.87337C192.715 18.1638 200.165 35.1672 233.724 41.3717C246.618 43.7553 246.748 41.4731 265.41 43.6752C286.575 46.1719 314.601 49.4388 335.338 63.8638C362.335 82.6441 369.73 115.676 366.164 140.431C364.922 149.047 358.154 185.81 324.491 202.642C297.909 215.933 286.351 200.9 228.016 211.256C193.241 217.429 182.82 225.351 163.205 219.812C140.507 213.403 142.636 197.814 119.646 193.128C90.4992 187.186 77.8323 203.663 50.1188 197.341Z" fill="#458F70" fill-opacity="0.35"/>
<path d="M257.832 169.83L256.569 183.205L251.906 182.859L250.95 169.762L257.832 169.83Z" fill="#ED7447"/>
<path d="M243.407 187.322C243.576 187.296 243.777 187.236 244.004 187.148C247.903 185.93 251.052 182.642 251.76 182.209C252.618 182.729 255.856 183.128 256.499 182.723C256.559 182.685 256.631 182.653 256.709 182.625C256.964 182.951 258.712 185.252 258.583 186.935C258.568 187.135 258.557 187.373 258.549 187.635L258.412 190.233L241.35 190.389C241.157 189.429 241.612 187.605 243.407 187.322Z" fill="#382234"/>
<path d="M222.724 169.72L221.461 183.094L216.798 182.748L215.842 169.652L222.724 169.72Z" fill="#ED7447"/>
<path d="M208.299 187.212C208.468 187.186 208.67 187.126 208.896 187.038C212.795 185.82 215.945 182.532 216.652 182.099C217.51 182.618 220.748 183.017 221.391 182.613C221.451 182.575 221.523 182.543 221.601 182.515C221.856 182.841 223.604 185.142 223.475 186.825C223.46 187.024 223.449 187.263 223.441 187.524L223.304 190.122L206.242 190.279C206.05 189.318 206.505 187.494 208.299 187.212Z" fill="#382234"/>
<path d="M253.531 81.8284C253.531 81.8284 260.732 159.73 260.332 172.246C260.332 172.246 255.732 174.62 248.531 173.325L235.46 114.575L225.327 173.973C225.327 173.973 216.748 174.668 211.548 172.079L217.126 82.9075C217.126 82.9075 233.929 85.7131 253.531 81.8284Z" fill="#965326"/>
<path d="M235.46 114.842C235.604 114.842 235.724 114.728 235.728 114.583C235.736 114.338 235.923 108.556 235.476 105.875C235.452 105.728 235.313 105.629 235.167 105.654C235.02 105.678 234.922 105.816 234.946 105.963C235.384 108.592 235.193 114.506 235.192 114.565C235.186 114.713 235.302 114.838 235.451 114.842C235.454 114.842 235.457 114.842 235.46 114.842Z" fill="white"/>
<path d="M215.016 157.983C215.108 157.983 215.184 157.912 215.189 157.82L217.42 120.554C217.425 120.458 217.352 120.375 217.256 120.37C217.16 120.364 217.078 120.437 217.072 120.533L214.842 157.798C214.836 157.894 214.91 157.977 215.005 157.983C215.009 157.983 215.012 157.983 215.016 157.983Z" fill="white"/>
<path d="M227.602 24.8642C227.602 24.8642 234.849 21.8283 239.238 28.4093C243.627 34.9903 238.097 40.7359 238.097 40.7359C236.423 46.2167 240.155 50.2208 240.155 50.2208C240.076 50.2656 239.998 50.3072 239.92 50.3504C237.202 51.2416 231.125 52.7332 227.202 49.9064C230.468 47.937 229.881 44.5357 229.881 44.5357C223.522 44.5907 224.42 39.8754 224.168 34.1879C223.917 28.5012 227.602 24.8642 227.602 24.8642Z" fill="#ED7447"/>
<path d="M230.275 35.1627C230.554 35.5517 231.096 35.6405 231.485 35.3616C231.874 35.0826 231.964 34.5403 231.684 34.1513C231.405 33.7623 230.864 33.6727 230.475 33.9525C230.085 34.2314 229.996 34.7729 230.275 35.1627Z" fill="black"/>
<path d="M225.15 34.364C225.147 34.8426 225.533 35.2332 226.012 35.2363C226.491 35.2395 226.882 34.8544 226.885 34.375C226.888 33.8964 226.502 33.5058 226.024 33.5026C225.544 33.4995 225.154 33.8846 225.15 34.364Z" fill="black"/>
<path d="M228.559 33.4545C228.559 33.4545 226.276 36.2342 226.658 36.8142C227.04 37.395 228.001 37.6905 229.111 37.3604L228.701 33.7925C228.701 33.7925 228.703 33.5276 228.559 33.4545Z" fill="#D35E39"/>
<path d="M232.388 32.2064C232.487 32.0422 232.402 31.8048 232.32 31.6759C232.098 31.3278 231.608 31.3058 231.094 31.2822C230.553 31.2586 229.966 31.2319 229.767 31.5872C229.683 31.7357 229.665 31.9573 229.764 32.1168C229.885 32.3133 230.124 32.3164 231.159 32.3432C232.054 32.366 232.287 32.3746 232.388 32.2064Z" fill="black"/>
<path d="M226.837 31.9081C226.936 31.7438 226.85 31.5065 226.769 31.3776C226.546 31.0287 226.057 31.0075 225.543 30.9839C225.001 30.9603 224.415 30.9336 224.215 31.2888C224.132 31.4373 224.113 31.659 224.212 31.8185C224.334 32.015 224.572 32.0181 225.608 32.0448C226.503 32.0676 226.736 32.0763 226.837 31.9081Z" fill="black"/>
<mask id="mask0_169_61" style="mask-type:luminance" maskUnits="userSpaceOnUse" x="224" y="24" width="17" height="29">
<path d="M227.602 24.8645C227.602 24.8645 223.917 28.5015 224.168 34.1882C224.419 39.8756 223.522 44.591 229.881 44.5359C229.881 44.5359 230.531 48.2988 226.665 50.2006C226.665 50.2006 231.324 55.3387 240.222 50.2902C240.222 50.2902 236.423 46.217 238.097 40.7362C238.097 40.7362 243.627 34.9906 239.238 28.4096C234.849 21.8286 227.602 24.8645 227.602 24.8645Z" fill="white"/>
</mask>
<g mask="url(#mask0_169_61)">
<path d="M229.881 44.5359C229.881 44.5359 232.679 44.0408 234.746 42.3197C234.746 42.3197 233.814 47.3886 228.218 48.4441L229.881 44.5359Z" fill="#D35E39"/>
</g>
<path d="M233.329 38.6211C234.985 37.9051 236.605 35.2724 236.889 32.6586C236.582 30.4196 235.343 26.5349 230.488 25.5573C230.488 25.5573 224.702 26.234 224.254 32.0126C224.254 32.0126 221.214 29.1582 221.33 26.1719C221.373 25.0732 221.755 24.1474 222.377 23.4008H222.375C222.378 23.3993 222.379 23.3969 222.381 23.3953C222.713 22.9985 223.113 22.6527 223.568 22.3595C228.19 18.8592 233.792 20.4404 233.792 20.4404L233.72 20.5198C235.482 21.0251 237.372 22.2141 239.07 24.6504C239.07 24.6504 243.89 24.2967 244.431 29.8891C244.431 29.8891 242.356 37.8729 237.902 41.1194L237.918 38.7107C237.918 38.7107 240.342 36.4143 239.388 34.8661C238.812 33.9301 238.054 33.9089 237.544 34.0386C237.508 35.0154 237.712 36.577 237.472 38.2266C236.977 41.6279 235.757 46.0131 230.747 45.7915C225.737 45.5691 223.213 45.4213 224.298 38.7154C224.298 38.7154 230.958 39.6451 233.329 38.6211Z" fill="#382234"/>
<path d="M230.076 40.3907L226.953 40.3703C226.953 40.3703 227.281 41.7802 228.506 41.6356C229.732 41.4902 230.076 40.3907 230.076 40.3907Z" fill="white"/>
<path d="M254.926 96.8323C254.926 96.8323 222.084 98.5667 216.173 97.1325L216.912 74.3355L252.672 71.4663L254.926 96.8323Z" fill="#2E7C4A"/>
<path d="M205.776 84.7477C205.14 82.2227 204.365 76.5785 206.568 67.6406C209.671 55.0468 215.139 51.0608 215.139 51.0608L228.769 48.5287C228.769 48.5287 229.577 51.3814 232.424 51.3626C234.167 51.3516 236.704 50.4556 238.634 47.8732C238.634 47.8732 252.672 47.5542 254.741 52.9744C256.81 58.3939 265.676 74.6546 264.79 80.8718C263.902 87.0889 253.854 90.1177 237.452 85.4951C237.452 85.4951 224.45 95.9395 207.948 87.2351L207.961 87.2241C206.441 86.4005 205.828 84.8837 205.776 84.7477Z" fill="#3D9660"/>
<path d="M232.821 71.8245L230.605 78.6396L224.067 78.5202C224.067 78.5202 226.504 71.9447 232.821 71.8245Z" fill="#ED7447"/>
<path d="M244.992 75.4631C244.992 75.4631 247.692 74.2945 247.416 73.6187C247.139 72.9436 244.89 74.5413 244.684 74.3825C244.478 74.2238 245.357 73.6359 246.936 72.7581C246.936 72.7581 247.059 71.8111 246.363 72.0736C245.666 72.3369 243.946 73.6242 243.709 73.5157C243.473 73.4065 244.607 72.4013 246.237 71.3765C246.237 71.3765 246.347 70.6881 245.724 70.773C245.724 70.773 242.468 72.7628 242.446 72.439C242.424 72.116 245.534 70.1081 245.381 69.6083C245.229 69.1085 244.687 69.1422 244.284 69.4346C243.882 69.7262 240.08 72.4925 239.962 72.017C239.845 71.5416 241.208 70.0625 241.021 69.7191C240.833 69.3757 239.976 69.3914 239.45 70.3305C238.925 71.2689 236.871 73.6666 236.871 73.6666L244.992 75.4631Z" fill="#ED7447"/>
<path d="M245.496 75.7754C246.591 75.7754 247.484 75.6159 248.168 75.2968C249.97 74.4559 250.912 71.9819 250.969 67.9433C251.011 64.9931 250.541 62.2417 250.535 62.2142C250.51 62.068 250.371 61.9705 250.225 61.9957C250.079 62.0208 249.981 62.1599 250.006 62.3061C250.011 62.3328 250.473 65.0418 250.432 67.9425C250.395 70.5626 249.932 73.8814 247.941 74.8095C247.292 75.1129 246.453 75.2394 245.506 75.2394C240.697 75.2402 233.069 71.9764 232.978 71.9371C232.841 71.8782 232.683 71.9411 232.624 72.077C232.566 72.2138 232.628 72.3717 232.765 72.4307C232.792 72.4425 235.588 73.6433 238.85 74.5934C241.553 75.3809 243.775 75.7754 245.496 75.7754Z" fill="white"/>
<path d="M237.452 85.7642C237.55 85.7642 237.645 85.7091 237.692 85.6156C237.758 85.4828 237.705 85.3209 237.572 85.2549C237.522 85.2298 232.564 82.711 230.881 78.5269C230.825 78.3894 230.669 78.3226 230.531 78.3784C230.394 78.4334 230.327 78.5898 230.383 78.7273C231.305 81.0198 233.146 82.803 234.528 83.8961C236.021 85.0749 237.279 85.7092 237.332 85.7351C237.37 85.7547 237.411 85.7642 237.452 85.7642Z" fill="white"/>
<path d="M224.067 78.7893C224.214 78.7893 224.335 78.6691 224.335 78.5205C224.335 78.372 224.214 78.2518 224.067 78.2518C223.994 78.2518 216.829 78.2156 214.5 75.2465C213.56 74.0481 213.662 71.4971 214.795 67.8702C215.665 65.0819 216.846 62.6409 216.858 62.6166C216.923 62.483 216.867 62.3227 216.733 62.2574C216.601 62.193 216.44 62.248 216.375 62.3816C216.177 62.7887 211.565 72.3741 214.078 75.5774C215.13 76.9205 217.138 77.8682 220.044 78.3964C222.183 78.7846 223.99 78.7893 224.067 78.7893Z" fill="white"/>
<path d="M251.047 94.2155H285.326C286.166 94.2155 286.93 94.8961 287.034 95.7362L289.848 118.514H300.43C300.746 118.514 301.002 118.77 301.002 119.086V120.117C301.002 120.433 300.746 120.689 300.43 120.689H288.817C288.747 120.699 288.673 120.705 288.597 120.705H254.319C253.478 120.705 252.714 120.024 252.61 119.185L249.714 95.7362C249.61 94.8961 250.207 94.2155 251.047 94.2155Z" fill="#C7C7C7"/>
<path d="M287.903 116.658H254.32L251.858 96.9429H285.389L287.903 116.658Z" fill="#EAEAEA"/>
<path d="M267.372 190.498C267.062 190.498 266.81 190.246 266.81 189.936V122.941C266.81 122.632 267.062 122.38 267.372 122.38C267.682 122.38 267.933 122.632 267.933 122.941V189.936C267.933 190.246 267.682 190.498 267.372 190.498Z" fill="#382234"/>
<path d="M99.4615 73.0286C99.4615 73.0286 91.1531 72.7928 86.9109 69.7876C86.9109 69.7876 83.3359 65.3882 80.2718 64.9953C80.2718 64.9953 79.4867 65.3096 80.2718 65.9776C81.0576 66.6448 83.1394 67.8237 82.8251 68.138C82.5107 68.4524 80.5947 67.7844 79.9228 67.3914C79.2509 66.9985 76.8154 65.231 76.5797 65.4275C76.3439 65.624 75.8724 66.2126 76.4225 66.5269C76.9718 66.8413 79.7609 68.3738 79.643 68.7274C79.5259 69.0803 79.3295 69.041 78.8579 68.7667C78.3864 68.4917 75.558 66.9592 75.1651 66.9985C74.7721 67.0378 74.6542 67.5879 74.89 67.7844C75.1258 67.9808 78.4257 69.709 78.4257 70.0233C78.4257 70.3377 78.1609 70.23 78.1459 70.1852C78.131 70.1412 75.5824 68.9035 75.3914 68.9333C75.1996 68.9624 74.8759 69.287 75.0818 69.5518C75.2877 69.8174 77.9542 71.2462 77.9392 71.4379C77.9251 71.6289 77.8662 71.6588 77.7035 71.6289C77.5416 71.5998 75.5187 70.5145 75.4008 70.5931C75.283 70.6717 74.949 70.9468 75.0865 71.1825C75.224 71.4183 78.4257 74.0007 80.1051 74.2656C81.7846 74.5312 83.5819 75.0318 84.5831 76.1517C85.5851 77.2708 94.512 85.8739 99.992 86.9348C99.992 86.9348 100.64 76.3285 99.4615 73.0286Z" fill="#FF8F57"/>
<path d="M120.988 29.0126C120.988 29.0126 116.94 32.5302 117.211 38.0173C117.481 43.5051 117.294 48.079 123.24 47.9862C123.24 47.9862 123.87 51.6131 120.267 53.4733C120.267 53.4733 124.382 60.9612 132.879 53.4088C132.879 53.4088 129.366 49.5674 130.897 44.2658C130.897 44.2658 136.032 38.6853 131.888 32.3605C127.744 26.0365 120.988 29.0126 120.988 29.0126Z" fill="#ED7447"/>
<path d="M124.249 39.2498C124.512 39.6239 125.019 39.7064 125.381 39.4345C125.744 39.1626 125.824 38.6392 125.561 38.2651C125.297 37.891 124.79 37.8085 124.428 38.0804C124.066 38.3524 123.986 38.8758 124.249 39.2498Z" fill="#2B3058"/>
<path d="M118.613 38.6674C118.613 39.1295 118.976 39.5044 119.424 39.5044C119.871 39.5044 120.234 39.1295 120.234 38.6674C120.234 38.2053 119.871 37.8305 119.424 37.8305C118.976 37.8305 118.613 38.2053 118.613 38.6674Z" fill="#2B3058"/>
<path d="M121.825 38.3427C121.825 38.3427 123.67 41.245 123.257 41.7629C122.845 42.2808 121.921 42.4654 120.922 42.0348L121.66 38.6523C121.66 38.6523 121.684 38.3977 121.825 38.3427Z" fill="#D35E39"/>
<path d="M126.674 36.3633C126.766 36.2037 126.685 35.9758 126.607 35.8516C126.397 35.5169 125.939 35.4988 125.458 35.4799C124.952 35.4595 124.404 35.4383 124.219 35.7817C124.142 35.9263 124.126 36.1401 124.219 36.2933C124.335 36.4827 124.558 36.4835 125.525 36.5023C126.363 36.5188 126.581 36.5259 126.674 36.3633Z" fill="#2B3058"/>
<path d="M120.865 36.2618C120.956 36.1023 120.875 35.8744 120.797 35.7502C120.587 35.4154 120.129 35.3973 119.648 35.3785C119.143 35.3581 118.594 35.3368 118.41 35.6803C118.333 35.8249 118.316 36.0386 118.41 36.1919C118.525 36.3813 118.749 36.3821 119.716 36.4009C120.554 36.4182 120.771 36.4245 120.865 36.2618Z" fill="#2B3058"/>
<mask id="mask1_169_61" style="mask-type:luminance" maskUnits="userSpaceOnUse" x="117" y="28" width="17" height="29">
<path d="M120.988 29.0128C120.988 29.0128 117.564 32.547 117.835 38.0348C118.105 43.5219 117.294 48.0792 123.24 47.9865C123.24 47.9865 123.87 51.6133 120.267 53.4735C120.267 53.4735 124.335 60.9143 132.943 53.4743C132.943 53.4743 129.366 49.5677 130.897 44.2661C130.897 44.2661 136.032 38.6855 131.888 32.3607C127.744 26.0367 120.988 29.0128 120.988 29.0128Z" fill="white"/>
</mask>
<g mask="url(#mask1_169_61)">
<path d="M123.24 47.9868C123.24 47.9868 125.852 47.4909 127.774 45.8162C127.774 45.8162 126.933 50.7146 121.708 51.7693L123.24 47.9868Z" fill="#D35E39"/>
</g>
<path d="M122.492 46.1026C124.183 45.8849 124.875 44.5654 125.074 44.0829H119.895C120.071 44.6385 120.753 46.3273 122.492 46.1026Z" fill="white"/>
<path d="M129.742 27.466C129.742 27.466 133.408 26.2722 132.043 21.9247C131.922 21.5389 131.769 21.208 131.592 20.9259C129.887 18.9949 126.748 19.8178 126.101 21.6701C125.187 24.2832 126.417 26.1874 126.417 26.1874C126.417 26.1874 117.552 26.0168 114.653 36.5021C111.79 46.8585 117.594 50.5726 123.158 49.8401C123.324 49.1541 123.33 48.3501 123.241 47.9823C122.639 48.0271 119.116 48.0648 117.978 44.3444C116.525 39.5922 117.336 31.8552 120.647 29.8637C125.532 26.9245 129.119 33.7043 129.119 37.6259C129.119 37.6259 130.92 36.5603 131.478 37.8412C132.061 39.178 131.06 40.7333 129.231 41.5318C129.231 41.5318 129.865 46.9882 130.718 48.8633C130.718 48.8633 139.46 48.0955 140.909 43.8328C142.358 39.571 136.903 30.0233 129.742 27.466Z" fill="#382234"/>
<path d="M146.222 175.901L154.086 176.532L156.859 183.061C156.859 183.061 164.264 188.255 165.177 188.396C166.09 188.537 169.178 188.045 168.616 190.361H147.043C147.043 190.361 147.838 185.097 149.804 183.131L146.222 175.901Z" fill="#ED7447"/>
<path d="M168.445 189.098H165.154V188.391C165.001 188.358 164.705 188.214 164.311 187.99V189.098H152.088C152.079 188.285 151.934 185.859 150.611 183.903H156.332H158.071C157.986 182.464 157.055 182.359 157.055 182.359H149.202L149.588 183.131C147.623 185.097 147.043 190.361 147.043 190.361H168.616C168.757 189.783 168.67 189.38 168.445 189.098Z" fill="#382234"/>
<path d="M113.958 175.802L121.821 176.434L124.593 182.962C124.593 182.962 131.999 188.157 132.912 188.297C133.824 188.437 136.913 187.946 136.352 190.262H114.778C114.778 190.262 115.573 184.998 117.538 183.032L113.958 175.802Z" fill="#ED7447"/>
<path d="M136.18 188.999H132.888V188.292C132.737 188.259 132.44 188.114 132.046 187.891V188.999H119.823C119.814 188.187 119.669 185.761 118.346 183.805H124.067H125.806C125.72 182.366 124.79 182.26 124.79 182.26H116.936L117.323 183.032C115.358 184.998 114.778 190.262 114.778 190.262H136.352C136.492 189.684 136.404 189.281 136.18 188.999Z" fill="#382234"/>
<path d="M116.977 52.7049C116.977 52.7049 121.289 52.3324 122.008 52.2302C122.008 52.2302 123.698 56.1636 126.924 55.8257C131 55.3989 131.665 51.5371 131.665 51.5371C131.665 51.5371 134.136 51.2314 134.958 51.3689C135.779 51.5064 140.178 52.6617 140.28 55.8878C140.383 59.1138 140.589 92.1964 141.924 95.7926L117.781 97.0249C117.781 97.0249 117.716 59.7299 116.977 55.9286C116.977 55.9286 116.278 53.7957 116.977 52.7049Z" fill="#F4EBDC"/>
<path d="M113.568 94.3906C113.568 94.3906 109.75 160.954 113.039 176.982H130.504C130.504 176.982 131.651 130.425 132.062 125.251C132.062 125.251 140.547 169.379 143.424 176.982H162.945C162.945 176.982 149.322 106.309 145.623 93.1584L113.568 94.3906Z" fill="#433A55"/>
<path d="M116.977 52.7048C116.977 52.7048 108.656 53.5261 107.114 55.068C105.573 56.6091 104.957 57.6363 103.827 61.4376C102.696 65.2389 101.977 70.9924 99.1007 72.4306C99.1007 72.4306 100.231 83.6294 99.1007 88.4587C99.1007 88.4587 100.539 89.7939 101.464 89.4858C102.388 89.1778 108.655 84.8625 110.3 81.5751C110.3 81.5751 111.841 86.4036 109.683 93.4931C107.525 100.582 108.964 103.767 108.964 103.767C108.964 103.767 119.751 106.335 122.629 104.281C122.629 104.281 123.142 95.4452 122.115 89.4858C121.087 83.5272 122.012 66.061 120.573 60.6156C119.135 55.1702 116.977 52.7048 116.977 52.7048Z" fill="#E03B1F"/>
<path d="M134.957 51.3691C134.957 51.3691 135.266 63.5951 133.827 70.6846C132.388 77.774 132.725 86.4039 134.406 93.2874C136.088 100.171 137.834 100.891 137.834 100.891C137.834 100.891 148.725 100.069 150.471 99.2468C150.471 99.2468 147.492 92.1573 147.389 89.8971C147.389 89.8971 149.341 91.1302 152.321 91.1302C152.321 91.1302 152.834 90.7192 152.834 89.8971C152.834 89.0751 153.348 79.4173 156.224 76.13C156.224 76.13 150.677 59.3828 148.828 56.3005C146.978 53.2183 134.957 51.3691 134.957 51.3691Z" fill="#E03B1F"/>
<path d="M132.025 121.919C130.058 112.651 128.442 94.9306 128.427 94.753L128.986 94.7019C129.002 94.8795 130.614 112.567 132.573 121.803L132.025 121.919Z" fill="white"/>
<path d="M131.262 113.904L130.878 113.494L133.685 110.877C133.913 110.663 134.025 110.351 133.984 110.042C133.417 105.766 132.034 94.8725 132.021 94.7633L132.577 94.6925C132.591 94.8018 133.975 105.694 134.54 109.968C134.606 110.457 134.429 110.95 134.067 111.287L131.262 113.904Z" fill="white"/>
<path d="M147.162 90.062C147.129 90.0164 146.338 88.9146 145.587 86.5523C144.899 84.3903 144.117 80.71 144.293 75.454L144.853 75.4728C144.523 85.3601 147.585 89.6895 147.616 89.7319L147.162 90.062Z" fill="white"/>
<path d="M318.69 87.5581C318.122 86.2504 317.233 83.9659 317.233 82.4829C317.233 82.4829 317.669 73.8657 315.926 71.7351C314.183 69.6054 306.105 68.6215 302.135 69.2989C302.135 69.2989 302.155 74.301 301.658 75.2693C301.16 76.2383 299.611 77.2544 299.949 77.7385C300.288 78.2226 301.402 78.3193 301.402 78.3193L301.354 79.4329C301.354 79.4329 301.285 84.0806 301.658 84.6134C302.031 85.1455 307.066 85.8716 308.277 85.6783L308.252 88.421C309.882 88.7378 314.412 89.357 318.69 87.5581Z" fill="#ED7447"/>
<path d="M316.858 187.087C316.983 185.618 314.697 177.362 313.002 171.534L306.597 171.86C308.776 177.858 310.534 183.179 310.534 183.179C310.534 183.179 304.809 186.771 302.026 187.256C302.026 187.256 299.56 188.476 301.329 189.929C303.1 191.382 316.677 189.228 316.858 187.087Z" fill="#ED7447"/>
<path d="M316.33 183.872C315.795 184.574 314.997 185.98 313.182 186.452C310.663 187.106 305.501 188.897 303.443 188.452C302.493 188.247 302.17 187.735 302.096 187.241C302.073 187.246 302.048 187.251 302.026 187.256C302.026 187.256 299.56 188.476 301.329 189.929C302.664 191.024 310.696 190.071 314.656 188.619L314.578 190.696L316.722 190.777L316.865 186.999C316.916 186.256 316.863 185.065 316.33 183.872Z" fill="#1C213F"/>
<path d="M294.221 186.193C294.345 184.724 292.061 176.468 290.365 170.64L283.961 170.966C286.14 176.965 287.896 182.285 287.896 182.285C287.896 182.285 282.173 185.877 279.388 186.362C279.388 186.362 276.922 187.582 278.693 189.035C280.463 190.489 294.04 188.334 294.221 186.193Z" fill="#ED7447"/>
<path d="M293.694 182.979C293.159 183.681 292.36 185.086 290.545 185.558C288.025 186.213 282.864 188.004 280.805 187.559C279.856 187.355 279.533 186.841 279.46 186.349C279.436 186.353 279.412 186.358 279.388 186.362C279.388 186.362 276.922 187.582 278.693 189.036C280.026 190.13 288.06 189.178 292.02 187.726L291.941 189.803L294.085 189.884L294.227 186.106C294.278 185.362 294.227 184.171 293.694 182.979Z" fill="#1C213F"/>
<path d="M262.437 108.467C262.437 108.467 259.536 107.228 257.881 105.668C256.227 104.108 254.147 101.839 253.721 102.217C253.296 102.595 253.154 103.069 253.721 103.494C254.289 103.919 255.659 105.432 255.471 105.621C255.281 105.81 248.474 103.116 248.285 103.21C248.096 103.304 247.86 103.777 248.285 104.061C248.71 104.345 252.445 106.33 252.445 106.472C252.445 106.614 252.304 106.897 252.02 106.755C251.736 106.614 247.15 104.439 246.725 104.676C246.3 104.912 246.3 105.337 246.725 105.621C247.15 105.905 251.311 107.418 251.452 107.748C251.594 108.079 251.216 108.174 250.932 108.079C250.648 107.984 246.142 107.021 245.874 107.323C245.549 107.69 245.52 107.965 246.134 108.153C246.749 108.343 250.979 109.403 251.027 109.686C251.074 109.97 250.554 110.112 250.223 109.97C249.892 109.828 245.851 109.107 245.567 109.734C245.35 110.211 245.59 110.632 246.725 110.726C247.86 110.821 251.878 111.624 253.06 112.286C254.241 112.948 256.983 112.57 258.401 113.184C259.82 113.799 261.048 114.414 261.048 114.414L262.437 108.467Z" fill="#ED7447"/>
<path d="M81.0601 123.365H312.465V120.672H81.0601V123.365Z" fill="#E03B1F"/>
<path d="M154.321 76.1664C154.321 76.1664 159.687 75.2823 161.455 73.6901C163.224 72.0987 169.946 68.9143 170.594 69.209C171.243 69.5045 170.359 70.2707 170.005 70.3296C169.651 70.3886 166.625 71.9808 167.293 72.3344C167.961 72.6881 175.233 70.9583 175.468 71.3513C175.704 71.745 175.625 71.9808 174.486 72.138C173.346 72.2951 171.342 73.0024 171.342 73.1203C171.342 73.2382 171.381 73.5133 171.892 73.4347C172.403 73.3561 176.805 72.7667 176.884 73.081C176.962 73.3954 177.159 73.8669 176.216 73.9455C175.272 74.0249 171.577 74.1035 171.617 74.4571C171.656 74.8108 171.538 74.7322 172.01 74.7715C172.481 74.8108 176.334 74.6143 176.451 74.7322C176.569 74.8501 176.962 75.4395 176.019 75.5574C175.075 75.6752 171.263 75.4788 171.263 75.7931C171.263 76.1075 171.46 76.1468 171.735 76.1664C172.01 76.1861 175.823 76.1075 176.019 76.3432C176.216 76.5798 176.255 77.1299 175.468 77.1299C174.682 77.1299 169.101 77.4443 167.725 78.0337C166.35 78.6231 163.018 81.09 160.896 83.6551C158.773 86.2194 154.793 89.1972 150.194 90.6125C150.194 90.6125 149.015 82.8291 154.321 76.1664Z" fill="#FF8F57"/>
<path d="M146.086 94.2155H180.364C181.204 94.2155 181.968 94.8961 182.072 95.7362L184.886 118.514H195.469C195.785 118.514 196.041 118.77 196.041 119.086V120.117C196.041 120.433 195.785 120.689 195.469 120.689H183.856C183.785 120.699 183.712 120.705 183.636 120.705H149.357C148.517 120.705 147.753 120.024 147.649 119.185L144.753 95.7362C144.648 94.8961 145.246 94.2155 146.086 94.2155Z" fill="#C7C7C7"/>
<path d="M182.941 116.658H149.359L146.897 96.9429H180.428L182.941 116.658Z" fill="#EAEAEA"/>
<path d="M172.793 116.362C172.793 116.362 161.467 114.374 158.085 121.12L175.494 121.238L178.724 120.675V114.425L172.793 116.362Z" fill="#ED7447"/>
<path d="M160.583 120.99C160.562 120.99 160.542 120.986 160.522 120.976C160.452 120.943 160.423 120.858 160.457 120.789C160.489 120.722 161.259 119.159 163.021 118.168C163.088 118.131 163.174 118.155 163.212 118.223C163.249 118.29 163.226 118.376 163.158 118.414C161.476 119.358 160.717 120.895 160.709 120.911C160.686 120.961 160.635 120.99 160.583 120.99Z" fill="#2B3058"/>
<path d="M165.048 121.353C164.203 121.353 163.434 121.251 163.03 120.943C162.833 120.793 162.725 120.603 162.71 120.377C162.68 119.97 163.233 119.833 163.873 119.675C164.465 119.529 165.136 119.363 165.194 119.005C165.521 117.005 168.678 116.927 168.812 116.925C168.813 116.925 168.814 116.925 168.814 116.925C168.891 116.925 168.953 116.986 168.954 117.063C168.956 117.14 168.894 117.205 168.817 117.206C168.786 117.206 165.76 117.282 165.472 119.05C165.383 119.591 164.617 119.78 163.941 119.948C163.534 120.048 162.977 120.186 162.989 120.356C163 120.501 163.069 120.62 163.201 120.72C164.279 121.541 168.588 120.686 168.631 120.678C168.707 120.662 168.781 120.712 168.797 120.787C168.812 120.863 168.762 120.937 168.687 120.953C168.567 120.976 166.67 121.353 165.048 121.353Z" fill="#2B3058"/>
<path d="M194.195 170.188L186.417 183.176L181.45 183.012L187.411 170.12L194.195 170.188Z" fill="#ED7447"/>
<path d="M173.507 187.433C173.673 187.406 173.872 187.347 174.095 187.261C177.939 186.06 181.045 182.819 181.742 182.392C182.588 182.904 185.78 183.297 186.414 182.898C186.473 182.861 186.545 182.829 186.622 182.802C186.873 183.123 188.596 185.392 188.469 187.05C188.454 187.248 188.443 187.483 188.435 187.741L188.301 190.302L171.479 190.456C171.289 189.509 171.738 187.711 173.507 187.433Z" fill="#382234"/>
<path d="M180.669 154.718L172.891 167.707L167.925 167.542L173.885 154.651L180.669 154.718Z" fill="#ED7447"/>
<path d="M159.981 171.964C160.147 171.938 160.346 171.878 160.57 171.791C164.413 170.591 167.519 167.35 168.216 166.922C169.063 167.435 172.254 167.827 172.888 167.428C172.948 167.391 173.019 167.36 173.096 167.332C173.347 167.654 175.07 169.923 174.943 171.581C174.928 171.778 174.917 172.013 174.91 172.272L174.775 174.832L157.953 174.986C157.763 174.04 158.212 172.242 159.981 171.964Z" fill="#382234"/>
<path d="M231.287 87.8067C230.72 86.499 229.83 84.2144 229.83 82.7314C229.83 82.7314 230.267 74.1142 228.523 71.9837C226.78 69.8539 218.703 68.87 214.733 69.5474C214.733 69.5474 214.754 74.5496 214.256 75.5178C213.757 76.486 212.209 77.5029 212.547 77.9871C212.886 78.4712 214 78.5678 214 78.5678L213.952 79.6814C213.952 79.6814 213.882 84.3291 214.256 84.862C214.629 85.394 219.664 86.1202 220.874 85.9268L220.849 88.6696C222.48 88.9863 227.01 89.6056 231.287 87.8067Z" fill="#ED7447"/>
<path d="M232.929 67.3367C232.058 64.4313 225.183 60.4618 217.244 63.3665C217.244 63.3665 214.216 65.9622 214.256 68.9761C214.847 70.3868 215.904 70.507 215.99 70.5149C215.992 70.5149 215.994 70.5149 215.996 70.5149H215.996C217.551 70.643 219.795 70.9699 219.857 71.7904C219.954 73.0493 219.857 76.4381 219.857 76.4381C219.857 76.4381 219.823 77.0841 219.726 77.899C219.716 77.987 219.705 78.0766 219.693 78.1678C219.663 78.3486 219.602 78.6236 219.481 78.8209C219.247 79.1557 218.756 79.7121 218.046 79.76C215.718 79.9172 213.999 78.5678 213.999 78.5678C213.999 78.5678 213.706 79.9408 213.764 81.1825C213.812 82.3063 213.878 83.6533 213.947 83.9826C214.058 84.5217 214.081 85.4019 214.473 85.5693C214.493 85.5763 214.514 85.5842 214.536 85.5897C215.435 85.8263 220.027 86.4054 220.874 85.9268C221.722 85.4482 222.478 83.6926 222.383 81.5212C222.289 79.3498 221.144 77.1847 221.213 76.4381C221.213 76.4381 221.213 73.8234 222.762 74.0176C224.312 74.2109 224.602 77.213 223.828 78.8586C223.053 80.505 224.241 82.2473 224.241 82.2473L229.83 82.7314C229.83 82.7314 231.186 77.213 232.252 75.5665C233.317 73.9209 233.801 70.2414 232.929 67.3367Z" fill="#382234"/>
<path d="M213.732 80.7932C213.732 80.7932 215.728 81.4125 217.34 80.6769C217.34 80.6769 218.058 80.7728 217.776 81.2875C217.496 81.8023 215.869 82.5395 213.801 82.3084L213.732 80.7932Z" fill="white"/>
<path d="M218.047 75.3015C217.925 75.3015 217.807 75.241 217.737 75.131C217.003 73.9663 215.332 74.1054 215.314 74.107C215.114 74.125 214.936 73.9773 214.918 73.7769C214.899 73.5757 215.047 73.3981 215.248 73.38C215.335 73.3722 217.384 73.2032 218.355 74.742C218.463 74.9125 218.412 75.1381 218.241 75.2449C218.18 75.2834 218.113 75.3015 218.047 75.3015Z" fill="#2B3058"/>
<path d="M216.664 75.7016C216.664 76.0702 216.365 76.3696 215.996 76.3696C215.628 76.3696 215.329 76.0702 215.329 75.7016C215.329 75.333 215.628 75.0344 215.996 75.0344C216.365 75.0344 216.664 75.333 216.664 75.7016Z" fill="#2B3058"/>
<path d="M190.52 140.692L182.817 178.388L197.404 182.322L209.696 144.462C209.696 144.462 202.812 135.611 198.223 136.103C193.634 136.594 190.52 140.692 190.52 140.692Z" fill="#5E231D"/>
<path d="M225.102 128.727L200.518 124.466C200.518 124.466 195.601 122.99 190.848 126.597C186.095 130.202 169.291 157.913 169.291 157.913L179.703 166.587L186.728 159.202C186.728 159.202 191.339 138.233 196.912 139.709C202.485 141.184 207.729 149.215 212.81 150.034C217.891 150.853 241.414 154.066 246.331 149.313C251.248 144.56 247.806 134.563 246.331 132.431C244.856 130.301 225.102 128.727 225.102 128.727Z" fill="#753126"/>
<path d="M216.416 131.186C216.416 131.186 213.302 122.171 212.154 118.566C212.154 118.566 197.484 123.378 188.112 122.981C178.745 122.584 176.956 122.799 176.956 122.799L177.462 113.86C177.462 113.86 186.423 110.698 196.666 108.24C196.666 108.24 205.107 91.195 219.202 88.4083C219.202 88.4083 230.511 86.6055 232.969 87.0974C235.428 87.5886 238.203 89.6358 241.742 96.9854C246.003 105.836 249.45 131.984 248.132 132.08C242.247 132.507 216.416 131.186 216.416 131.186Z" fill="#1D50BD"/>
<path d="M212.155 118.846C212.055 118.846 211.958 118.793 211.907 118.699C211.834 118.564 211.885 118.393 212.021 118.319C212.039 118.309 213.931 117.27 216.052 115.257C218.001 113.407 220.55 110.331 221.622 106.177C221.66 106.027 221.814 105.937 221.964 105.975C222.114 106.014 222.204 106.167 222.166 106.317C221.058 110.606 218.433 113.774 216.425 115.677C214.253 117.736 212.367 118.769 212.289 118.812C212.246 118.835 212.2 118.846 212.155 118.846Z" fill="white"/>
<path d="M225.972 190.445C225.663 190.445 225.411 190.194 225.411 189.883V157.105C225.411 156.795 225.663 156.544 225.972 156.544C226.283 156.544 226.534 156.795 226.534 157.105V189.883C226.534 190.194 226.283 190.445 225.972 190.445Z" fill="#382234"/>
<path d="M239.619 190.445H212.727C212.418 190.445 212.166 190.194 212.166 189.883C212.166 189.574 212.418 189.322 212.727 189.322H239.619C239.929 189.322 240.18 189.574 240.18 189.883C240.18 190.194 239.929 190.445 239.619 190.445Z" fill="#382234"/>
<path d="M207.083 156.045C207.124 155.901 207.17 155.753 207.22 155.605C207.22 155.604 207.22 155.604 207.22 155.603C207.252 155.51 207.285 155.417 207.319 155.324C207.723 154.355 208.838 153.056 208.838 153.056C210.865 150.937 217.268 143.585 217.268 143.585L223.593 112.546C223.593 112.546 223.994 108.934 225.332 108.533C226.67 108.132 253.198 106.927 254.134 107.73C255.071 108.533 256.141 109.336 255.739 111.744C255.339 114.152 247.712 154.156 247.712 154.156C247.712 154.156 247.444 156.028 245.705 156.564C244.152 157.041 214.542 157.839 208.126 157.433C206.996 157.215 207.083 156.045 207.083 156.045Z" fill="#C7C7C7"/>
<path d="M196.559 86.1178C198.388 84.3401 199.525 81.8536 199.525 79.1014C199.525 73.6977 195.145 69.3179 189.741 69.3179C184.338 69.3179 179.957 73.6977 179.957 79.1014C179.957 84.5052 184.338 88.8849 189.741 88.8849C191.087 88.8849 192.369 88.613 193.536 88.1218L197.491 90.4496C197.694 90.5683 197.936 90.3741 197.864 90.151L196.559 86.1178Z" fill="#C7C7C7"/>
<path d="M195.57 78.1836H183.742C183.609 78.1836 183.5 78.0751 183.5 77.9415C183.5 77.8071 183.609 77.6995 183.742 77.6995H195.57C195.703 77.6995 195.812 77.8071 195.812 77.9415C195.812 78.0751 195.703 78.1836 195.57 78.1836Z" fill="white"/>
<path d="M195.57 81.4265H183.742C183.609 81.4265 183.5 81.3181 183.5 81.1845C183.5 81.0509 183.609 80.9424 183.742 80.9424H195.57C195.703 80.9424 195.812 81.0509 195.812 81.1845C195.812 81.3181 195.703 81.4265 195.57 81.4265Z" fill="white"/>
<path d="M288.411 77.6817C290.241 75.904 291.377 73.4183 291.377 70.6661C291.377 65.2624 286.997 60.8818 281.593 60.8818C276.19 60.8818 271.81 65.2624 271.81 70.6661C271.81 76.0691 276.19 80.4496 281.593 80.4496C282.939 80.4496 284.221 80.1777 285.389 79.6865L289.344 82.0143C289.546 82.133 289.789 81.9388 289.716 81.7156L288.411 77.6817Z" fill="#C7C7C7"/>
<path d="M287.422 69.7476H275.595C275.461 69.7476 275.353 69.6391 275.353 69.5055C275.353 69.3719 275.461 69.2635 275.595 69.2635H287.422C287.556 69.2635 287.664 69.3719 287.664 69.5055C287.664 69.6391 287.556 69.7476 287.422 69.7476Z" fill="white"/>
<path d="M287.422 72.9917H275.595C275.461 72.9917 275.353 72.8832 275.353 72.7496C275.353 72.616 275.461 72.5076 275.595 72.5076H287.422C287.556 72.5076 287.664 72.616 287.664 72.7496C287.664 72.8832 287.556 72.9917 287.422 72.9917Z" fill="white"/>
<path d="M57.0921 170.386L51.759 183.374L56.4311 183.23L63.8766 170.318L57.0921 170.386Z" fill="#ED7447"/>
<path d="M65.0326 187.631C64.866 187.605 64.6672 187.546 64.444 187.459C60.6003 186.258 57.4952 183.017 56.7974 182.59C55.9517 183.102 52.7595 183.496 52.1261 183.096C52.0663 183.059 51.9956 183.027 51.9178 183.001C51.6671 183.321 49.9444 185.591 50.071 187.249C50.0859 187.446 50.0969 187.681 50.1048 187.939L50.2391 190.5L67.0602 190.654C67.2504 189.708 66.8017 187.909 65.0326 187.631Z" fill="#382234"/>
<path d="M80.6536 169.989L75.3214 182.977L79.9927 182.833L87.4382 169.921L80.6536 169.989Z" fill="#ED7447"/>
<path d="M88.595 187.234C88.4283 187.208 88.2295 187.149 88.0055 187.062C84.1626 185.861 81.0567 182.62 80.3597 182.194C79.5133 182.705 76.3218 183.099 75.6876 182.7C75.6278 182.662 75.5571 182.631 75.4801 182.603C75.2286 182.924 73.506 185.193 73.6325 186.852C73.6474 187.049 73.6584 187.284 73.6663 187.542L73.8007 190.104L90.6225 190.258C90.8127 189.311 90.364 187.512 88.595 187.234Z" fill="#382234"/>
<path d="M53.3551 87.4017C53.9233 86.094 54.8121 83.8102 54.8121 82.3272C54.8121 82.3272 54.3768 73.71 56.1198 71.5795C57.8622 69.4497 65.9403 68.4658 69.9098 69.1432C69.9098 69.1432 69.8893 74.1454 70.3876 75.1136C70.8851 76.0818 72.4348 77.0988 72.0961 77.5829C71.7566 78.067 70.643 78.1636 70.643 78.1636L70.6917 79.2772C70.6917 79.2772 70.7609 83.925 70.3876 84.4578C70.0143 84.9898 64.9791 85.716 63.7689 85.5227L63.794 88.2654C62.1625 88.5821 57.6335 89.2006 53.3551 87.4017Z" fill="#ED7447"/>
<path d="M51.7142 66.9317C52.5857 64.027 59.4598 60.0575 67.3996 62.9622C67.3996 62.9622 70.4276 65.5579 70.3868 68.5718C69.7958 69.9825 68.7388 70.1027 68.6531 70.1098C68.6508 70.1106 68.6492 70.1106 68.6468 70.1106C67.0923 70.2387 64.8486 70.5656 64.7858 71.3861C64.6883 72.6443 64.7858 76.0338 64.7858 76.0338H63.4301C63.4301 76.0338 63.4301 73.4192 61.8804 73.6133C60.3314 73.8066 60.0406 76.8079 60.8155 78.4543C61.5904 80.1 60.4021 81.843 60.4021 81.843L54.8121 82.3271C54.8121 82.3271 53.4565 76.8079 52.3916 75.1622C51.3267 73.5158 50.8426 69.8371 51.7142 66.9317Z" fill="#382234"/>
<path d="M98.5593 94.2863H64.2814C63.4413 94.2863 62.6766 94.9677 62.5729 95.807L59.7594 118.585H49.1759C48.86 118.585 48.6038 118.841 48.6038 119.158V120.187C48.6038 120.504 48.86 120.76 49.1759 120.76H60.7889C60.8604 120.771 60.9335 120.776 61.009 120.776H95.2877C96.1278 120.776 96.8925 120.096 96.9962 119.255L99.8922 95.807C99.9959 94.9677 99.3994 94.2863 98.5593 94.2863Z" fill="#C7C7C7"/>
<path d="M61.7043 116.729H95.286L97.7482 97.0148H64.2168L61.7043 116.729Z" fill="#EAEAEA"/>
<path d="M63.7688 86.6247C63.7688 86.6247 74.7586 88.3748 78.1482 92.2995C81.5369 96.2242 95.095 108.711 102.765 110.852C110.436 112.992 116.323 114.241 116.323 114.241C116.323 114.241 117.215 118.879 116.323 121.02H87.6024C87.6024 121.02 78.1482 117.809 76.3642 115.489C76.3642 115.489 77.4362 126.085 77.0778 130.831C76.6511 136.469 74.937 147.599 74.937 147.599H36.5835V116.738C36.5835 116.738 36.9403 95.8675 40.865 90.8724C44.7897 85.8773 53.9256 85.9307 53.9256 85.9307C53.9256 85.9307 56.2762 90.7278 63.7688 86.6247Z" fill="#E05536"/>
<path d="M76.0105 137.526C76.0105 137.526 92.9542 138.055 99.6437 138.725C106.333 139.394 107.136 145.815 106.2 148.224C105.263 150.632 90.8135 178.594 87.2008 182.608L74.7586 179.932C74.7586 179.932 82.6521 161.201 85.4616 155.716H38.769C38.769 155.716 36.7619 143.942 38.769 140.731C40.7762 137.52 55.1987 136.564 76.0105 137.526Z" fill="#5A4E74"/>
<path d="M76.6511 155.121L63.8074 181.745L50.1613 180.943L59.7939 155.656L76.6511 155.121Z" fill="#4A4063"/>
<path d="M116.684 114.119H119.293C119.293 114.119 121.568 111.443 123.641 111.443C125.715 111.443 129.64 111.443 130.071 112.615C130.395 113.496 129.135 113.837 129.135 113.837C129.135 113.837 131.342 113.547 131.486 114.774C131.61 115.824 130.263 115.993 130.263 115.993C130.263 115.993 131.409 115.854 131.386 117.07C131.364 118.275 129.669 118.081 129.669 118.081C129.669 118.081 131.106 118.25 130.331 119.671C129.937 120.393 127.922 119.671 127.922 119.671C127.922 119.671 129.595 120.475 128.725 121.01C127.855 121.545 116.684 121.01 116.684 121.01V114.119Z" fill="#FF8F67"/>
<path d="M70.6965 80.3225C70.6965 80.3225 68.7208 81.0062 67.0854 80.3225C67.0854 80.3225 66.3718 80.4411 66.6696 80.9465C66.9667 81.4518 68.6163 82.1371 70.6753 81.8392L70.6965 80.3225Z" fill="white"/>
<path d="M66.5965 74.8975C66.5297 74.8975 66.4629 74.8794 66.4024 74.8409C66.2319 74.7332 66.1808 74.5084 66.2885 74.3379C67.2582 72.7984 69.3086 72.9681 69.3951 72.976C69.5962 72.994 69.744 73.1717 69.7251 73.3728C69.7071 73.5732 69.5302 73.7202 69.329 73.7029C69.3047 73.7006 67.6339 73.5724 66.9054 74.7269C66.8362 74.8369 66.7175 74.8975 66.5965 74.8975Z" fill="#2B3058"/>
<path d="M67.9797 75.2976C67.9797 75.6662 68.2784 75.9648 68.647 75.9648C69.0155 75.9648 69.3142 75.6662 69.3142 75.2976C69.3142 74.929 69.0155 74.6304 68.647 74.6304C68.2784 74.6304 67.9797 74.929 67.9797 75.2976Z" fill="#2B3058"/>
<path d="M76.3644 115.77C76.274 115.77 76.1852 115.727 76.131 115.646C76.0917 115.587 75.1415 114.168 74.134 111.947C73.202 109.895 72.0522 106.754 71.8636 103.439C71.855 103.284 71.9728 103.152 72.1277 103.143C72.2825 103.134 72.4153 103.253 72.4239 103.407C72.776 109.592 76.5585 115.276 76.597 115.333C76.6834 115.461 76.6497 115.635 76.5208 115.723C76.4728 115.755 76.4186 115.77 76.3644 115.77Z" fill="white"/>
<path d="M126.263 114.259C126.108 114.259 125.983 114.133 125.983 113.978C125.983 113.823 126.108 113.698 126.263 113.698C126.755 113.698 129.314 113.558 129.34 113.557C129.495 113.549 129.627 113.667 129.635 113.822C129.644 113.977 129.525 114.109 129.371 114.117C129.265 114.123 126.77 114.259 126.263 114.259Z" fill="#2B3058"/>
<path d="M128.824 116.282C128.424 116.282 128.043 116.28 127.8 116.273C127.646 116.268 127.524 116.138 127.529 115.984C127.533 115.828 127.664 115.707 127.818 115.712C128.517 115.733 130.461 115.712 130.481 115.711C130.637 115.708 130.763 115.833 130.765 115.989C130.766 116.144 130.642 116.271 130.487 116.273C130.435 116.274 129.595 116.282 128.824 116.282Z" fill="#2B3058"/>
<path d="M129.89 118.362H127.69C127.535 118.362 127.41 118.236 127.41 118.081C127.41 117.925 127.535 117.8 127.69 117.8H129.89C130.045 117.8 130.171 117.925 130.171 118.081C130.171 118.236 130.045 118.362 129.89 118.362Z" fill="#2B3058"/>
<path d="M128.143 119.951C128.133 119.951 128.122 119.951 128.111 119.95L126.945 119.816C126.791 119.799 126.68 119.66 126.698 119.506C126.715 119.352 126.854 119.241 127.008 119.259L128.175 119.392C128.329 119.41 128.439 119.549 128.422 119.703C128.406 119.846 128.284 119.951 128.143 119.951Z" fill="#2B3058"/>
<path d="M58.8947 90.1917C58.894 90.1917 58.8924 90.1917 58.8916 90.1917C52.6698 90.1225 51.707 87.1739 51.6685 87.0481C51.6237 86.9004 51.7078 86.7432 51.8564 86.6984C52.0041 86.6536 52.1597 86.7369 52.2053 86.8839C52.21 86.8988 52.4332 87.5589 53.344 88.2206C54.2046 88.8454 55.8659 89.5967 58.8979 89.6297C59.0527 89.6313 59.1769 89.7586 59.1753 89.9134C59.1737 90.0675 59.048 90.1917 58.8947 90.1917Z" fill="white"/>
<path d="M85.5065 155.993L85.4177 155.438C85.4798 155.429 91.7252 154.386 97.7483 149.848L98.0862 150.295C94.8782 152.713 91.6325 154.132 89.4753 154.898C87.1333 155.728 85.5718 155.983 85.5065 155.993Z" fill="white"/>
<path d="M94.1835 153.677C93.209 153.677 92.6707 153.525 92.6267 153.513L92.7839 152.973C92.8043 152.979 94.8712 153.546 98.4053 152.326L98.5884 152.856C96.6897 153.513 95.1997 153.677 94.1835 153.677Z" fill="white"/>
<path d="M54.2362 190.247C53.9265 190.247 53.675 189.995 53.675 189.685V156.906C53.675 156.597 53.9265 156.345 54.2362 156.345C54.5466 156.345 54.7973 156.597 54.7973 156.906V189.685C54.7973 189.995 54.5466 190.247 54.2362 190.247Z" fill="#382234"/>
<path d="M67.883 190.247H40.9908C40.6812 190.247 40.4297 189.995 40.4297 189.685C40.4297 189.375 40.6812 189.124 40.9908 189.124H67.883C68.1926 189.124 68.4441 189.375 68.4441 189.685C68.4441 189.995 68.1926 190.247 67.883 190.247Z" fill="#382234"/>
<path d="M27.1809 116.985C27.1809 116.985 25.7538 113.417 27.1809 112.347C28.608 111.277 52.5119 111.455 55.0095 111.455C57.507 111.455 58.2206 112.525 59.2902 115.736C60.3606 118.947 69.4588 154.447 69.4588 154.447H85.8704V157.122C85.8704 157.122 71.7779 159.262 69.2804 159.262C66.7828 159.262 39.8466 159.262 39.8466 159.262C39.8466 159.262 38.0627 159.084 37.7059 158.193C37.3491 157.301 27.1809 116.985 27.1809 116.985Z" fill="#C7C7C7"/>
<path d="M150.635 43.7142C148.806 41.9366 147.669 39.45 147.669 36.6978C147.669 31.2949 152.05 26.9144 157.454 26.9144C162.857 26.9144 167.237 31.2949 167.237 36.6978C167.237 42.1016 162.857 46.4813 157.454 46.4813C156.107 46.4813 154.826 46.2102 153.659 45.7182L149.703 48.046C149.5 48.1647 149.258 47.9706 149.331 47.7474L150.635 43.7142Z" fill="#C7C7C7"/>
<path d="M151.625 35.78H163.452C163.586 35.78 163.694 35.6716 163.694 35.538C163.694 35.4044 163.586 35.2959 163.452 35.2959H151.625C151.491 35.2959 151.383 35.4044 151.383 35.538C151.383 35.6716 151.491 35.78 151.625 35.78Z" fill="white"/>
<path d="M151.625 39.0234H163.452C163.586 39.0234 163.694 38.915 163.694 38.7814C163.694 38.6478 163.586 38.5393 163.452 38.5393H151.625C151.491 38.5393 151.383 38.6478 151.383 38.7814C151.383 38.915 151.491 39.0234 151.625 39.0234Z" fill="white"/>
<path d="M26.4865 103.805C29.8656 99.8345 30.9638 97.4689 32.8223 94.0056C34.6808 90.5422 37.9753 91.5552 37.2994 94.2586C36.6235 96.9621 37.0464 104.734 36.1167 111.661C35.5092 116.193 32.5873 117.543 30.6393 117.935C30.3549 117.941 28.6162 117.962 27.7126 117.476C22.6797 114.325 23.3283 107.516 26.4865 103.805Z" fill="#3E9D8B"/>
<path d="M34.137 136.67C34.137 136.67 34.1361 136.67 34.1359 136.669C35.7873 134.872 38.6267 133.101 41.5463 133.887C45.9394 135.07 47.7131 131.944 52.2752 134.309C55.7975 136.136 53.9303 140.28 51.6905 141.761C50.782 142.186 49.8193 142.2 49.3462 142.174C46.697 141.796 42.5648 143.921 39.3497 145.207C36.4066 146.384 33.8481 143.716 33.2371 143.008C32.0886 141.444 32.8298 139.041 33.2045 138.074C33.4471 137.549 34.137 136.67 34.137 136.67Z" fill="#3E9D8B"/>
<path d="M11.5517 144.644C13.6636 146.587 19.4081 149.121 22.7027 151.234C24.997 152.704 24.9152 155.158 24.6541 156.512L24.651 156.508C24.651 156.508 24.422 157.355 24.1393 157.868C23.2561 159.213 22.5282 160.285 20.253 160.526C17.5021 160.817 14.5929 156.64 13.2413 153.345C11.8897 150.051 7.58128 147.854 6.82101 145.32C6.06075 142.785 9.43982 142.701 11.5517 144.644Z" fill="#3E9D8B"/>
<path d="M17.6244 141.93C17.6244 141.93 19.9053 144.803 24.0447 142.353C28.1841 139.903 26.6635 133.145 24.0447 130.019C21.4259 126.893 18.6381 121.487 18.6381 117.348C18.6381 113.208 16.6107 106.45 11.88 108.646C7.14916 110.843 10.6128 116.08 12.1334 119.375C13.6539 122.67 14.4988 127.738 14.3298 130.863C14.1608 133.99 14.7521 139.058 17.6244 141.93Z" fill="#3E9D8B"/>
<path d="M32.9544 163.688C32.9544 163.688 36.3627 166.632 38.6803 163.019C40.9986 159.405 41.2029 156.338 43.0435 153.611C44.884 150.884 44.0659 146.589 41.067 147.476C38.0673 148.361 37.9305 151.975 36.3627 153.474C34.7948 154.975 31.9716 157.516 31.6589 159.542C31.4056 161.182 31.3681 162.218 32.9544 163.688Z" fill="#3E9D8B"/>
<path d="M34.0304 128.88C34.0304 128.88 38.1317 132.421 40.9208 128.074C43.71 123.726 43.9559 120.035 46.1706 116.754C48.3852 113.473 47.4005 108.305 43.7917 109.371C40.1821 110.437 40.0186 114.785 38.1317 116.589C36.2448 118.395 32.8479 121.452 32.4717 123.89C32.1669 125.864 32.1217 127.111 34.0304 128.88Z" fill="#3E9D8B"/>
<path d="M9.55561 147.104C9.56662 147.076 9.58776 147.054 9.61518 147.042C9.64261 147.031 9.67303 147.03 9.70093 147.041L11.1558 147.614C10.3458 146.63 9.89417 146.049 9.88977 146.044C9.87146 146.02 9.86344 145.99 9.86722 145.96C9.87099 145.931 9.88608 145.904 9.90973 145.886C9.95862 145.849 10.0291 145.857 10.067 145.906C10.0832 145.927 11.7158 148.027 14.3401 151.001V147.606C14.3401 147.545 14.3904 147.494 14.4521 147.494C14.514 147.494 14.5642 147.545 14.5642 147.606V151.255C16.6949 153.657 18.8284 155.899 20.9058 157.918L20.7446 153.404C20.7424 153.342 20.7909 153.29 20.8527 153.288C20.8538 153.288 20.8548 153.288 20.8559 153.288C20.9172 153.288 20.9664 153.335 20.9686 153.395L21.1376 158.127C21.1378 158.132 21.1367 158.137 21.1357 158.141C23.3228 160.253 25.4384 162.105 27.4248 163.645C27.0994 158.754 26.9534 153.742 26.9906 148.749C25.3202 146.531 23.607 143.459 21.8986 139.618L16.8341 135.988C16.7839 135.952 16.7723 135.882 16.8083 135.832C16.8258 135.807 16.8517 135.792 16.8813 135.787C16.9108 135.782 16.9404 135.789 16.9646 135.806L21.7203 139.214C20.127 135.582 18.5532 131.327 17.0425 126.569C16.7761 125.729 16.5072 124.86 16.2434 123.985L14.4234 122.33C14.4013 122.31 14.3883 122.282 14.3868 122.252C14.3854 122.223 14.3958 122.193 14.4159 122.171C14.4574 122.126 14.5284 122.123 14.5742 122.164L16.1184 123.568C14.2279 117.246 13.1333 112.436 13.1224 112.388C13.1158 112.359 13.1209 112.329 13.1369 112.303C13.1528 112.278 13.1777 112.261 13.2068 112.254C13.2359 112.247 13.2658 112.252 13.2912 112.269C13.3166 112.284 13.3342 112.309 13.3409 112.338C13.3445 112.354 13.7071 113.942 14.3608 116.45L15.5976 113.127C15.608 113.098 15.6288 113.076 15.656 113.064C15.6833 113.051 15.7137 113.051 15.7417 113.061C15.7698 113.071 15.792 113.092 15.8045 113.119C15.817 113.146 15.818 113.177 15.8076 113.205L14.4595 116.827C15.0825 119.198 15.7493 121.566 16.4414 123.865C16.4615 123.888 16.4705 123.918 16.4668 123.949C16.7278 124.814 16.9934 125.673 17.2566 126.502C17.8689 128.43 18.5024 130.307 19.1403 132.082L19.371 126.466C19.3723 126.436 19.3851 126.408 19.4071 126.388C19.4289 126.368 19.4574 126.358 19.4876 126.359C19.5175 126.36 19.5451 126.373 19.5654 126.395C19.5856 126.417 19.5962 126.446 19.5949 126.476L19.3417 132.638C21.896 139.648 24.4705 144.943 26.994 148.377C27.0148 146.138 27.0701 143.91 27.1585 141.753C27.4933 133.594 28.3053 125.363 29.572 117.288C29.7301 116.28 29.8984 115.256 30.0725 114.246L27.9967 109.141C27.9735 109.083 28.0011 109.018 28.0583 108.995C28.0859 108.984 28.1164 108.984 28.144 108.995C28.1716 109.007 28.193 109.028 28.2044 109.057L30.1448 113.829C30.4086 112.315 30.6911 110.796 30.9846 109.312C30.9833 109.292 30.9871 109.274 30.9957 109.256C31.4362 107.034 31.9109 104.841 32.4067 102.739L31.2879 99.9977C31.2766 99.9702 31.2767 99.9396 31.2883 99.9121C31.2999 99.8846 31.3216 99.8634 31.3492 99.8516C31.377 99.8406 31.4075 99.8406 31.435 99.8524C31.4626 99.8641 31.484 99.8854 31.4954 99.9129L32.4957 102.364C33.6474 97.5309 34.5144 94.8321 34.523 94.8046C34.5419 94.7465 34.6055 94.7135 34.6645 94.7331C34.7234 94.752 34.7556 94.8148 34.7368 94.8738C34.7329 94.8848 34.3649 96.0345 33.8039 98.1124L35.1431 96.8078C35.1643 96.7866 35.1926 96.7756 35.2225 96.7756C35.2523 96.7764 35.2806 96.7882 35.3018 96.8102C35.3443 96.8542 35.3435 96.9249 35.2995 96.9682L33.6905 98.5352C33.0992 100.755 32.2026 104.362 31.2824 108.963L35.015 105.284C35.0362 105.262 35.0637 105.251 35.0936 105.251H35.0944C35.1242 105.251 35.1525 105.263 35.1737 105.284C35.1942 105.306 35.206 105.334 35.206 105.364C35.2052 105.394 35.1934 105.422 35.1722 105.443L31.2046 109.354C30.688 111.965 30.2132 114.647 29.7934 117.323C28.9814 122.499 28.3504 127.835 27.9177 133.182C30.6871 131.825 33.3802 129.635 35.9219 126.675V121.888C35.9219 121.826 35.9722 121.776 36.0343 121.776C36.0964 121.776 36.1467 121.826 36.1467 121.888V126.412C37.6752 124.599 39.1338 122.524 40.484 120.244C40.5217 120.178 40.5602 120.114 40.5979 120.05L40.1531 116.827C40.1452 116.765 40.1877 116.709 40.249 116.7C40.3103 116.692 40.3669 116.736 40.3755 116.796L40.781 119.735C42.275 117.147 43.3635 114.776 44.015 113.238L43.7281 111.826C43.7218 111.796 43.7281 111.766 43.7446 111.742C43.7611 111.717 43.7863 111.7 43.8153 111.694C43.8766 111.681 43.9356 111.721 43.9481 111.781L44.169 112.871C44.5941 111.845 44.8103 111.23 44.8126 111.224C44.8331 111.166 44.8975 111.135 44.9557 111.156C45.0138 111.176 45.0445 111.24 45.024 111.299C45.0217 111.306 44.7623 112.044 44.2436 113.272C44.2413 113.294 44.2326 113.315 44.2185 113.332C43.736 114.47 43.2023 115.624 42.6326 116.764L44.4071 115.829C44.4613 115.8 44.5297 115.821 44.558 115.876C44.5871 115.931 44.5659 115.998 44.5116 116.027L42.4581 117.11C41.9363 118.137 41.3854 119.146 40.8227 120.109C40.818 120.124 40.8101 120.138 40.7983 120.15C40.759 120.218 40.7189 120.286 40.6789 120.354C40.036 121.44 39.3562 122.497 38.6584 123.498L41.7445 122.284C41.7728 122.273 41.8035 122.273 41.831 122.285C41.8577 122.297 41.8789 122.319 41.8899 122.347C41.9127 122.404 41.8844 122.469 41.827 122.492L38.4242 123.831C37.6878 124.867 36.9184 125.854 36.1396 126.766C36.1294 126.796 36.1089 126.821 36.0814 126.833C33.4834 129.855 30.73 132.079 27.8966 133.443C27.6442 136.609 27.4597 139.817 27.3481 142.978C29.4215 142.963 32.1932 142.516 35.5863 141.651L37.6642 137.103C37.6768 137.076 37.6988 137.055 37.7271 137.044C37.7554 137.034 37.7852 137.035 37.8127 137.048C37.8693 137.073 37.8937 137.139 37.8678 137.196L35.8661 141.58C37.834 141.07 40.0101 140.421 42.3347 139.651L43.6299 137.175C43.6432 137.148 43.6668 137.128 43.6951 137.12C43.7242 137.111 43.754 137.114 43.7808 137.128C43.8358 137.156 43.857 137.224 43.8279 137.279L42.6412 139.55C45.2677 138.673 47.5821 137.809 49.065 137.237L50.4034 135.187C50.4372 135.135 50.5071 135.121 50.559 135.155C50.6109 135.189 50.625 135.258 50.5912 135.31L49.4234 137.099C50.5276 136.669 51.1775 136.401 51.183 136.398C51.2404 136.375 51.3064 136.402 51.33 136.459C51.3535 136.515 51.326 136.581 51.2695 136.605C51.2498 136.614 49.2403 137.443 46.3396 138.497L48.5935 138.784C48.6548 138.792 48.698 138.848 48.6902 138.909C48.6831 138.97 48.6273 139.015 48.5652 139.007L45.9184 138.669C45.9066 138.667 45.8971 138.663 45.8885 138.659C43.2691 139.602 40.7763 140.419 38.4784 141.09L42.8911 142.222C42.9509 142.237 42.987 142.299 42.9713 142.359C42.9587 142.408 42.9139 142.443 42.8628 142.443C42.8534 142.443 42.844 142.442 42.8353 142.439L38.0619 141.214C38.0603 141.213 38.0579 141.213 38.0564 141.212C33.5151 142.515 29.9099 143.184 27.3404 143.203C27.0534 151.584 27.2685 159.898 27.9798 167.916C30.1823 166.84 32.3262 165.11 34.352 162.775C34.3512 162.772 34.3501 162.767 34.3501 162.762V158.854C34.3501 158.792 34.4004 158.742 34.4622 158.742C34.5238 158.742 34.5741 158.792 34.5741 158.854V162.516C35.8276 161.038 37.0237 159.341 38.1287 157.474L38.1412 157.453L37.7805 154.839C37.7719 154.778 37.8151 154.721 37.8764 154.713C37.9055 154.708 37.9353 154.716 37.9589 154.734C37.9833 154.753 37.9982 154.779 38.0029 154.809L38.3243 157.14C39.5307 155.06 40.4117 153.15 40.9406 151.909L40.7024 150.737C40.6969 150.708 40.7024 150.678 40.7189 150.653C40.7354 150.628 40.7606 150.61 40.7905 150.605C40.8195 150.599 40.8494 150.605 40.8745 150.621C40.8989 150.638 40.9162 150.663 40.9225 150.692L41.0946 151.542C41.4396 150.713 41.6196 150.204 41.6211 150.199C41.6416 150.141 41.7052 150.11 41.7634 150.131C41.7917 150.14 41.8145 150.161 41.8278 150.188C41.8404 150.215 41.842 150.246 41.8325 150.273C41.8263 150.292 41.1527 152.192 39.8765 154.736L41.251 154.012C41.3052 153.983 41.3736 154.004 41.4027 154.058C41.431 154.113 41.4097 154.181 41.3555 154.21L39.7012 155.082C39.2603 155.943 38.7967 156.786 38.3236 157.585C37.8041 158.464 37.254 159.319 36.6881 160.13L39.1613 159.157C39.1888 159.146 39.2195 159.147 39.247 159.158C39.2745 159.17 39.2957 159.192 39.3067 159.22C39.3177 159.248 39.3169 159.279 39.3051 159.306C39.2926 159.334 39.2713 159.354 39.2431 159.365L36.4705 160.456C36.4657 160.458 36.4602 160.459 36.4555 160.46C33.8369 164.126 30.9927 166.715 28.0014 168.155C28.1125 169.389 28.2343 170.61 28.3633 171.786C28.37 171.847 28.3255 171.903 28.264 171.909C28.2599 171.91 28.2558 171.91 28.2517 171.91C28.1946 171.91 28.1467 171.868 28.1405 171.81C27.8599 169.255 27.6257 166.608 27.4444 163.944C24.4432 161.634 21.1878 158.648 17.7686 155.069C17.7632 155.069 17.7577 155.068 17.7522 155.067L14.9925 154.447C14.9634 154.441 14.9385 154.423 14.9224 154.397C14.9064 154.372 14.9012 154.342 14.9077 154.313C14.9143 154.284 14.9319 154.259 14.9574 154.243C14.9828 154.227 15.0126 154.222 15.0416 154.229L17.4921 154.779C14.9124 152.061 12.7845 149.578 11.4509 147.971L9.6188 147.249C9.5909 147.238 9.56897 147.217 9.55703 147.189C9.54516 147.163 9.54461 147.132 9.55561 147.104Z" fill="#006666"/>
<path d="M17.9382 190.258H37.8772V170.318H17.9382V190.258Z" fill="#C7470A"/>
<path d="M304.907 88.5214C304.907 88.5214 295.333 89.7985 289.716 97.2023C284.1 104.606 276.696 107.798 275.93 107.925C275.164 108.053 265.475 108.732 261.05 107.796L259.59 114.563C259.59 114.563 273.037 121.116 277.036 121.116C281.036 121.116 291.078 116.776 291.078 116.776C291.078 116.776 290.397 129.541 292.78 130.903C295.163 132.265 295.844 136.009 298.737 137.541C301.63 139.073 308.439 144.008 312.013 144.008C315.588 144.008 328.523 143.838 328.864 143.158C329.204 142.476 328.693 128.52 329.544 128.009C330.395 127.498 336.352 127.328 339.246 121.712C342.14 116.095 337.714 108.606 336.693 104.351C335.672 100.096 333.459 90.9042 324.608 88.5214C324.608 88.5214 320.226 88.075 318.374 88.075C318.374 88.075 308.233 87.7269 304.907 88.5214Z" fill="#712D44"/>
<path d="M295.716 132.179C295.716 132.179 280.908 132.307 275.036 134.605C269.164 136.902 266.483 146.604 267.632 150.817C268.781 155.03 278.767 172.026 279.788 173.941L293.958 173.048C293.958 173.048 287.802 153.625 288.185 151.711C288.568 149.796 290.738 150.306 290.738 150.306C290.738 150.306 299.542 171.324 301.457 173.494L317.924 172.729C317.924 172.729 310.141 149.668 310.141 148.647C310.141 147.626 326.097 148.775 327.375 147.881C328.651 146.988 328.733 145.71 328.864 143.158C328.993 140.605 322.396 133.073 318.311 132.69C314.226 132.307 295.716 132.179 295.716 132.179Z" fill="#965326"/>
<path d="M316.679 190.445C316.369 190.445 316.117 190.194 316.117 189.883V157.105C316.117 156.795 316.369 156.544 316.679 156.544C316.989 156.544 317.24 156.795 317.24 157.105V189.883C317.24 190.194 316.989 190.445 316.679 190.445Z" fill="#382234"/>
<path d="M330.325 190.445H303.434C303.124 190.445 302.873 190.194 302.873 189.883C302.873 189.574 303.124 189.322 303.434 189.322H330.325C330.636 189.322 330.887 189.574 330.887 189.883C330.887 190.194 330.636 190.445 330.325 190.445Z" fill="#382234"/>
<path d="M297.789 156.045C297.83 155.901 297.876 155.753 297.926 155.605C297.926 155.604 297.927 155.604 297.927 155.603C297.959 155.51 297.991 155.417 298.026 155.324C298.429 154.355 299.545 153.056 299.545 153.056C301.572 150.937 307.974 143.585 307.974 143.585L314.3 112.546C314.3 112.546 314.7 108.934 316.039 108.533C317.376 108.132 343.904 106.927 344.841 107.73C345.777 108.533 346.848 109.336 346.446 111.744C346.045 114.152 338.419 154.156 338.419 154.156C338.419 154.156 338.151 156.028 336.412 156.564C334.859 157.041 305.248 157.839 298.832 157.433C297.703 157.215 297.789 156.045 297.789 156.045Z" fill="#C7C7C7"/>
<path d="M332.656 91.6762C327.692 84.3014 328.401 83.7348 328.684 79.1963C328.968 74.6586 325.423 71.2549 322.87 69.2698C320.401 67.3491 321.248 64.2354 316.561 63.5195C308.573 61.4628 304.008 64.8853 302.532 66.2968C302.52 66.3141 301.652 67.5456 301.821 68.4383C301.937 69.0521 302.196 69.5943 302.549 69.9134C302.969 70.2191 303.343 70.2616 303.392 70.2663C303.394 70.2663 303.396 70.2663 303.398 70.2663H303.399C304.953 70.3944 306.185 71.9363 307.052 73.1654C307.052 73.1654 307.84 75.0893 307.871 75.6394C309.069 73.9214 310.171 74.2051 310.171 74.2051C311.721 74.3992 312.004 76.9644 311.23 78.61C311.179 78.7185 311.136 78.8277 311.101 78.9362C311.101 78.9362 309.558 83.3308 310.928 86.4728C311.584 87.9778 311.423 89.3012 311.077 90.2718C310.794 90.8125 310.46 91.3799 310.104 91.9669C308.431 94.7222 306.286 97.8917 306.845 100.61C307.838 105.432 310.674 113.941 322.303 109.686C333.932 105.432 337.619 99.0501 332.656 91.6762Z" fill="#382234"/>
<path d="M305.367 75.4185C305.246 75.4185 305.128 75.3587 305.058 75.2487C304.324 74.0832 302.652 74.2223 302.636 74.2239C302.435 74.2428 302.258 74.095 302.239 73.8938C302.221 73.6934 302.368 73.5158 302.569 73.497C302.656 73.4891 304.706 73.3202 305.676 74.8589C305.783 75.0295 305.732 75.255 305.562 75.3627C305.502 75.4004 305.434 75.4185 305.367 75.4185Z" fill="#2B3058"/>
<path d="M303.985 75.8196C303.985 76.1882 303.686 76.4868 303.318 76.4868C302.949 76.4868 302.65 76.1882 302.65 75.8196C302.65 75.451 302.949 75.1524 303.318 75.1524C303.686 75.1524 303.985 75.451 303.985 75.8196Z" fill="#2B3058"/>
<path d="M305.096 80.7105C305.082 80.7058 305.068 80.7019 305.055 80.6979C304.989 80.6846 304.918 80.6979 304.861 80.7152C304.827 80.7294 304.793 80.7435 304.759 80.7569C304.756 80.7584 304.754 80.7592 304.754 80.7592V80.7584C303.18 81.3628 301.343 80.793 301.343 80.793L301.38 82.2956C303.447 82.5275 305.107 81.8021 305.388 81.2873C305.586 80.9251 305.29 80.7702 305.096 80.7105Z" fill="white"/>
<path d="M299.901 150.587H290.738C290.582 150.587 290.457 150.461 290.457 150.306C290.457 150.152 290.582 150.026 290.738 150.026H299.901C300.056 150.026 300.182 150.152 300.182 150.306C300.182 150.461 300.056 150.587 299.901 150.587Z" fill="white"/>
<path d="M291.078 117.056C291.012 117.056 290.944 117.033 290.89 116.985C290.775 116.881 290.766 116.704 290.869 116.589C290.88 116.576 291.98 115.34 293.185 113.143C294.296 111.117 295.725 107.839 296.231 103.716C296.251 103.562 296.391 103.453 296.545 103.472C296.698 103.49 296.808 103.63 296.789 103.784C296.271 108.004 294.806 111.359 293.668 113.43C292.432 115.678 291.333 116.912 291.287 116.964C291.232 117.025 291.155 117.056 291.078 117.056Z" fill="white"/>
<path d="M107.661 190.92C107.352 190.92 107.1 190.668 107.1 190.359V123.364C107.1 123.054 107.352 122.803 107.661 122.803C107.972 122.803 108.222 123.054 108.222 123.364V190.359C108.222 190.668 107.972 190.92 107.661 190.92Z" fill="#382234"/>
<path d="M345.114 140.476C344.352 140.892 343.003 140.073 342.215 139.233C340.843 137.771 341.267 136.347 340.559 133.988C339.554 130.639 337.915 130.898 336.97 128.053C335.795 124.514 338.099 123.412 337.384 119.772C336.589 115.724 333.498 115.859 331.588 111.214C329.822 106.925 330.207 101.342 332.278 100.448C333.843 99.7724 336.579 101.69 337.937 103.899C339.852 107.015 337.902 108.885 339.593 112.318C341.433 116.056 344.679 115.738 345.114 118.667C345.521 121.407 342.813 122.557 343.458 125.431C343.939 127.575 345.549 127.398 346.218 129.847C346.714 131.664 345.884 131.96 345.666 136.059C345.517 138.864 345.833 140.082 345.114 140.476Z" fill="#3E9D8B"/>
<path d="M355.88 95.3417C354.211 94.7287 352.228 96.5032 351.325 97.6875C350.973 98.1496 349.945 99.624 349.807 104.589C349.681 109.096 350.486 109.359 350.083 112.043C349.579 115.396 348.266 115.35 347.184 119.22C346.199 122.74 345.823 128.005 348.013 129.158C348.578 129.455 349.429 129.539 350.083 129.158C352.088 127.99 349.719 123.924 351.463 119.496C353.047 115.473 356.143 115.93 356.708 112.594C357.319 108.988 353.878 107.395 354.913 104.037C355.651 101.648 357.752 101.29 357.813 98.93C357.848 97.5319 357.158 95.8108 355.88 95.3417Z" fill="#3E9D8B"/>
<path d="M356.984 140.337C355.361 140.991 353.151 140.128 352.153 138.682C350.431 136.184 352.456 132.138 353.395 130.262C354.954 127.147 355.941 127.419 356.432 125.292C357.189 122.011 355.023 120.561 356.018 117.563C356.693 115.531 357.764 115.972 358.917 113.699C360.874 109.838 358.615 106.926 360.573 105.003C361.704 103.891 363.759 103.586 364.989 104.313C367.844 106.001 366.064 113.14 365.956 113.561C364.972 117.367 363.575 117.302 363.333 120.324C363.055 123.807 364.791 125.386 363.609 127.363C362.607 129.041 361.069 128.383 360.021 130.124C358.873 132.031 360.369 133.397 359.468 136.611C359.161 137.707 358.607 139.684 356.984 140.337Z" fill="#3E9D8B"/>
<path d="M334.9 140.476C333.505 139.365 334.498 137.68 333.382 135.507C332.076 132.964 329.905 133.686 328.412 131.228C326.937 128.798 328.717 127.526 327.447 124.741C325.949 121.457 322.794 121.733 322.063 118.806C321.53 116.668 322.617 114.142 323.72 113.975C324.959 113.786 325.223 116.73 328.551 119.22C330.725 120.848 331.995 120.624 332.967 122.257C333.896 123.816 333.091 124.614 333.52 126.811C334.312 130.874 337.631 131.043 338.765 135.369C338.853 135.706 339.826 139.579 338.074 140.752C337.205 141.334 335.776 141.175 334.9 140.476Z" fill="#3E9D8B"/>
<path d="M346.373 148.287C346.295 148.287 346.229 148.229 346.219 148.15C345.16 139.464 341.725 127.918 339.029 119.761C336.108 110.919 333.402 104.044 333.375 103.975C333.343 103.895 333.382 103.805 333.463 103.773C333.543 103.742 333.633 103.781 333.665 103.861C333.691 103.93 336.4 110.811 339.325 119.661C342.025 127.832 345.466 139.401 346.528 148.112C346.538 148.198 346.478 148.276 346.392 148.286C346.386 148.287 346.379 148.287 346.373 148.287Z" fill="#176657"/>
<path d="M348.564 148.287C348.483 148.287 348.415 148.225 348.409 148.142C347.915 141.326 347.975 134.41 348.586 127.589C349.075 122.131 349.917 116.721 351.087 111.507C353.08 102.628 355.369 97.3283 355.392 97.2756C355.427 97.197 355.518 97.1609 355.597 97.1947C355.676 97.2292 355.712 97.3212 355.677 97.3998C355.654 97.4524 353.375 102.732 351.389 111.585C349.555 119.754 347.605 132.725 348.72 148.12C348.726 148.206 348.662 148.28 348.576 148.287C348.572 148.287 348.568 148.287 348.564 148.287Z" fill="#176657"/>
<path d="M351.884 148.287C351.862 148.287 351.84 148.283 351.819 148.272C351.741 148.236 351.706 148.144 351.742 148.066C356.381 137.984 363.387 106.455 363.458 106.138C363.476 106.054 363.559 106.001 363.643 106.019C363.727 106.037 363.78 106.121 363.762 106.205C363.744 106.284 361.978 114.249 359.66 123.359C357.52 131.772 354.458 142.91 352.025 148.196C351.999 148.254 351.943 148.287 351.884 148.287Z" fill="#176657"/>
<path d="M344.562 148.287C344.518 148.287 344.475 148.269 344.444 148.232C339.107 142.021 333.884 133.786 330.443 127.972C326.715 121.675 324.215 116.78 324.191 116.732C324.152 116.656 324.182 116.561 324.259 116.523C324.335 116.483 324.43 116.514 324.468 116.59C324.493 116.639 326.989 121.526 330.712 127.816C334.146 133.618 339.358 141.835 344.68 148.03C344.736 148.095 344.728 148.193 344.663 148.249C344.634 148.275 344.598 148.287 344.562 148.287Z" fill="#176657"/>
<path d="M339.257 190.681C339.226 190.681 339.195 190.679 339.164 190.674C338.858 190.622 338.652 190.333 338.703 190.028L344.177 157.316C344.228 157.01 344.518 156.804 344.824 156.855C345.129 156.906 345.335 157.196 345.284 157.501L339.81 190.213C339.764 190.487 339.527 190.681 339.257 190.681Z" fill="#382234"/>
<path d="M353.868 190.681C353.599 190.681 353.361 190.487 353.315 190.213L347.841 157.501C347.79 157.196 347.996 156.906 348.302 156.855C348.608 156.804 348.897 157.01 348.948 157.316L354.423 190.028C354.474 190.333 354.267 190.622 353.962 190.674C353.93 190.679 353.899 190.681 353.868 190.681Z" fill="#382234"/>
<path d="M346.466 190.681C346.156 190.681 345.905 190.43 345.905 190.12V157.809C345.905 157.499 346.156 157.247 346.466 157.247C346.776 157.247 347.028 157.499 347.028 157.809V190.12C347.028 190.43 346.776 190.681 346.466 190.681Z" fill="#382234"/>
<path d="M336.452 151.267C336.452 155.47 339.86 158.877 344.063 158.877H348.869C353.073 158.877 356.48 155.47 356.48 151.267V143.812H336.452V151.267Z" fill="#C7470A"/>
</svg>
