<svg width="15" height="15" viewBox="0 0 15 15" fill="none" xmlns="http://www.w3.org/2000/svg">
<path d="M10 6.875C10 8.25563 8.88063 9.375 7.5 9.375C6.11937 9.375 5 8.25563 5 6.875V2.5C5 1.11937 6.11937 0 7.5 0C8.88063 0 10 1.11937 10 2.5V6.875ZM12.5 5.625V6.875C12.5 9.63625 10.2613 11.875 7.5 11.875C4.73875 11.875 2.5 9.63625 2.5 6.875V5.625H3.75V6.875C3.75 8.94313 5.43187 10.625 7.5 10.625C9.56813 10.625 11.25 8.94313 11.25 6.875V5.625H12.5ZM8.125 13.75V12.5H6.875V13.75H4.375V15H10.625V13.75H8.125Z" fill="white"/>
</svg>
